<?xml version="1.0" encoding="UTF-8"?>
<!DOCTYPE svg PUBLIC "-//W3C//DTD SVG 1.1//EN" "http://www.w3.org/Graphics/SVG/1.1/DTD/svg11.dtd">
<!-- Creator: CorelDRAW X7 -->
<svg xmlns="http://www.w3.org/2000/svg" xml:space="preserve" width="360px" height="640px" version="1.1" style="shape-rendering:geometricPrecision; text-rendering:geometricPrecision; image-rendering:optimizeQuality; fill-rule:evenodd; clip-rule:evenodd"
viewBox="0 0 360 640"
 xmlns:xlink="http://www.w3.org/1999/xlink">
 <defs>
  <style type="text/css">
   <![CDATA[
    .str0 {stroke:#000004;stroke-width:0.9;stroke-opacity:0.619608}
    .str1 {stroke:#000004;stroke-width:0.9}
    .fil0 {fill:#FEFEFE}
    .fil18 {fill:#000004}
    .fil14 {fill:#457BE7}
    .fil4 {fill:#5AA6FE}
    .fil2 {fill:#9AC8FC}
    .fil1 {fill:#CBEAFE}
    .fil3 {fill:#D2E8FD}
    .fil5 {fill:white}
    .fil6 {fill:#5C5C5C;fill-opacity:0.101961}
    .fil12 {fill:#CBEAFE;fill-opacity:0.231373}
    .fil10 {fill:#CBEAFE;fill-opacity:0.368627}
    .fil11 {fill:#CBEAFE;fill-opacity:0.419608}
    .fil13 {fill:#D2E8FD;fill-opacity:0.419608}
    .fil7 {fill:#FEFEFE;fill-opacity:0.478431}
    .fil8 {fill:#FEFEFE;fill-opacity:0.580392}
    .fil16 {fill:#000004;fill-opacity:0.619608}
    .fil17 {fill:#000004;fill-rule:nonzero;fill-opacity:0.619608}
    .fil15 {fill:#2F5199;fill-opacity:0.788235}
    .fil9 {fill:#FEFEFE;fill-opacity:0.850980}
   ]]>
  </style>
 </defs>
 <g id="Camada_x0020_1">
  <metadata id="CorelCorpID_0Corel-Layer"/>
  <polygon class="fil0" points="-1,0 359,0 359,641 -1,641 "/>
  <path class="fil1" d="M239 234c41,56 73,85 95,88 13,-18 22,-29 27,-34l0 -288 -361 0 0 334c105,-99 169,-150 192,-152 9,2 25,20 47,52z"/>
  <path class="fil2" d="M184 394c-39,-33 -62,-47 -69,-44 -10,-4 -34,11 -70,45 -8,4 -16,2 -23,-4 -8,-3 -15,4 -22,21l0 47c55,-7 0,-33 64,-26 6,1 18,-8 18,-11l7 0c1,4 4,0 5,4l14 21c4,2 1,4 8,4l0 -12c20,0 0,9 32,-10 14,-8 5,23 29,-9 21,-28 20,29 36,31 17,3 3,4 27,-9 0,0 28,2 36,15 3,4 24,2 24,-21l14 -6 4 7c7,23 14,32 43,35l0 -79c-17,-7 -41,3 -72,30 -7,7 -13,4 -18,-8 -7,-13 -19,-18 -38,-14 -12,-16 -21,-22 -26,-19l-23 12z"/>
  <path class="fil3" d="M115 350c7,-3 30,11 69,44l23 -12c5,-3 14,3 26,19 19,-4 31,1 38,14 5,12 11,15 18,8 31,-27 55,-37 72,-30l0 -105c-5,5 -14,16 -27,34 -22,-3 -54,-32 -95,-88 -22,-32 -38,-50 -47,-52 -23,2 -87,53 -192,152l0 78c7,-17 14,-24 22,-21 7,6 15,8 23,4 36,-34 60,-49 70,-45z"/>
  <path class="fil4" d="M126 366c-46,-1 -7,1 -4,-16l-20 1 -18 11 -20 16 -8 9c-2,2 -9,6 -11,8 -2,1 -4,1 -5,2 -6,1 -11,-1 -17,-5l-1 -1c-5,-1 -9,0 -12,3 -1,1 -1,2 -2,3l-5 8c0,0 0,0 0,0 0,1 0,1 -1,2 0,1 -1,2 -1,4 -1,9 1,21 -1,31l0 17c10,-1 16,-3 21,-5 1,-2 7,-2 7,-2 1,-1 -1,-2 -1,-3 1,-1 1,-4 1,-5 1,-6 0,-11 13,-12 0,0 0,0 0,-1 0,0 0,-1 0,-1 -2,-1 -1,-2 0,-6 -1,-13 10,-11 19,-12 4,-1 7,-1 9,-2 2,-2 3,-4 4,-8 0,-2 11,-10 14,0 3,1 6,4 8,7 2,0 4,1 5,5 2,2 3,4 5,5 5,3 11,5 15,3 0,0 0,0 0,0l0 -1 -1 -9c-1,-3 -1,-5 -1,-6 0,0 0,0 1,0 0,-1 1,-1 1,0 5,0 7,2 10,4 2,0 4,1 6,2 3,0 6,-1 10,-2l-2 -11c-12,0 -1,-4 -1,-7l-15 -6 10 -4 -22 -4c0,-6 10,-8 10,-12z"/>
  <path class="fil4" d="M329 410c-4,1 -7,-1 -18,5 -5,2 -1,13 -3,18 3,-1 8,1 9,2 1,1 0,-1 1,2 1,9 4,18 5,21 2,3 3,2 9,5 2,1 6,3 9,5 6,3 13,5 19,5 0,0 1,1 1,1l0 -80c-5,-3 -20,-3 -20,2 -1,9 -8,11 -10,12 -1,1 -1,1 -2,2z"/>
  <path class="fil4" d="M254 437c-16,-4 -30,-30 -38,-30 0,-2 -1,-14 -3,-16 -2,-2 -2,-8 -2,-9 0,1 -5,0 -8,2 -7,3 -14,8 -9,7 14,-2 -3,7 -3,7 -12,-7 -13,30 -28,20 -7,-5 -16,-6 -17,-12 -2,6 -3,5 2,9 -3,17 8,15 11,19 11,16 22,-24 25,-18 1,-6 4,-6 9,-1 2,4 5,11 5,11 1,5 5,15 7,18 6,11 12,11 19,9 7,-2 11,-10 16,-11 2,0 6,0 7,2 6,-1 13,3 19,5 5,2 9,7 12,9 4,2 8,2 11,1 11,-5 16,-8 12,-19 1,-1 3,-3 4,-4 -10,2 -12,-4 -19,-9 -2,2 -4,3 -7,0 -5,-6 -12,-19 -18,-23 -1,0 -5,-3 -9,-4 -5,0 -14,0 -15,0 6,12 17,6 20,30 2,16 2,8 -3,7z"/>
  <path class="fil5" d="M182 185l-25 14 -31 23 -43 42 -21 20 -4 -3c0,0 -29,77 13,29l11 -11 2 -1 0 14c25,6 25,-35 34,-31 2,9 2,39 21,3 8,-15 2,-10 16,-23l-1 63 0 1c0,-2 17,-64 28,-37 12,31 14,-16 14,-16 15,21 35,19 7,-11l2 -12c2,0 71,95 48,25 -8,-26 -3,-2 11,-7 -8,-10 -16,-21 -25,-33 -5,-7 -10,-14 -14,-20 0,0 -1,0 -1,0 -1,0 -5,-6 -10,-14 -4,-5 -8,-9 -12,-12 -5,-4 -12,-6 -20,-3z"/>
  <path class="fil6" d="M139 284c-19,36 -19,6 -21,-3 -9,-4 -9,37 -34,31l0 -14 -2 1 -11 11c-37,42 -19,-12 -14,-26 -1,0 -2,-1 -1,-2l-55 52c-1,0 -1,0 -1,0l2 73c2,-4 4,-8 6,-10 1,-1 2,-3 3,-3 3,-4 7,-5 11,-3 1,0 1,0 1,1 1,0 1,1 2,1 5,2 10,5 17,3 1,0 2,-1 3,-1 6,-7 13,-12 19,-17 7,-7 14,-12 20,-16 7,-5 13,-9 18,-11 6,-2 10,-2 13,-1 1,-1 4,-1 7,0 11,4 32,18 62,44l13 -7c2,-1 4,-2 6,-3l4 -2 -1 -6c-1,-26 -44,-35 -30,-39 42,-10 -16,-14 -22,-13 0,0 0,1 0,1l0 -1 1 -63c-14,13 -8,8 -16,23z"/>
  <path class="fil6" d="M175 282c0,0 0,0 0,0 0,0 0,0 0,0zm-91 30c25,6 25,-35 34,-31 2,9 2,39 21,3 8,-15 2,-10 16,-23l-1 63 0 0c2,-7 12,-41 21,-42l0 0 0 -8c3,0 3,0 4,-3 6,-8 39,-2 14,-13 -26,-12 2,-16 0,-18 -23,-21 13,-16 6,-24 -15,-18 4,0 0,-11 -13,-2 -8,-16 -7,-21 -1,-1 -2,-1 -4,-1l-15 6 -47 33 -8 8c2,4 -1,4 -7,7l-28 27 -12 12c-1,1 -2,2 -4,3l-5 5 -1 -1c-2,1 -3,1 -4,1 -5,14 -23,68 14,26l11 -11 2 -1 0 14z"/>
  <path class="fil6" d="M183 304c-23,-2 -6,-11 -2,-17 -1,-3 -3,-5 -4,-5 -1,0 -1,0 -2,0 0,0 0,0 0,0 -9,1 -19,35 -21,42l29 -20z"/>
  <path class="fil7" d="M292 245c-20,7 -23,-32 -44,2 5,2 0,0 20,24 2,3 10,12 13,14 14,9 25,24 34,28 10,5 16,7 20,8 5,-7 9,-13 13,-18 2,-4 5,-8 9,-11 2,-2 3,-3 4,-4l0 -88c-8,0 -23,18 -35,18 -23,1 -6,8 -14,7 -19,0 -19,15 -20,20z"/>
  <path class="fil8" d="M293 264c1,3 1,12 -12,21 1,-1 4,2 6,5 12,9 21,20 28,23 6,3 11,5 15,7 8,-1 9,-13 17,-17 14,-8 -25,-46 -30,-38 -11,16 -22,2 -24,-1z"/>
  <path class="fil9" d="M1 334c3,-6 15,-16 27,-26 10,-10 20,-19 30,-27 0,-4 -6,-21 -6,-21 -13,-5 19,-15 0,-19 -3,-1 3,-9 -20,-14 -4,-15 2,13 -18,15 -5,1 9,5 -7,5 -4,1 -6,4 -7,9l0 22c0,0 0,0 0,1l0 55c0,0 0,0 1,0z"/>
  <path class="fil10" d="M13 287c5,-6 -11,-6 -4,-12 11,-10 -5,-13 -9,-8l0 17c2,13 3,37 3,43 0,2 0,3 0,4 0,-1 0,-1 0,-1 1,-3 4,-21 4,-21 -4,-6 2,-18 6,-22z"/>
  <path class="fil11" d="M21 247c16,10 0,18 20,5 5,-4 11,-8 11,-12 -15,0 -12,-16 -16,-9 -9,17 -10,-2 -15,16z"/>
  <path class="fil12" d="M12 246c1,10 3,11 10,20 10,14 6,-11 8,20 0,4 10,2 13,3 0,3 16,2 -1,-4 -8,-2 -1,-15 -9,-20 -4,-2 -2,-6 -10,-11 -1,-1 -12,-9 -12,-9 0,-19 -1,18 0,7 0,-2 1,-5 1,-6z"/>
  <path class="fil13" d="M52 278c-4,-7 -11,-26 -16,-24 0,1 -3,4 -3,4 -1,0 -1,0 -1,1 4,2 24,28 20,19z"/>
  <path class="fil14" d="M361 442c-27,-11 -160,-60 -192,-23 -6,8 -22,7 -49,-3 -11,-4 -52,-39 -56,-38 -74,10 -72,68 -42,23 8,-12 -16,7 -19,14 -2,6 -3,12 -4,19l0 90 2 39 0 0 4 75 150 1 206 -1 0 -196z"/>
  <path class="fil15" d="M314 559l-98 22c-3,1 101,-24 98,-22zm47 -116l0 195 -198 -13c23,-5 -13,1 65,-38 -49,23 -29,0 -113,-14 56,-13 9,-10 58,-45 -36,17 22,-7 -24,-17 17,1 -10,10 28,-32 -1,0 -27,15 -28,15 -4,2 72,-43 67,-42 -1,0 -55,26 -56,26 -24,5 -6,-17 -26,-16 25,-3 -19,35 1,20 0,0 11,-29 11,-29 5,-4 -8,-8 -3,-13l53 -18 0 0 -18 1 -3 0 -17 1 -2 0c2,-2 5,-4 8,-5 4,-2 8,-4 12,-6 1,0 2,-1 3,-1 8,-3 17,-5 27,-6 3,0 7,-1 10,-1 9,0 18,1 27,2 9,1 18,3 26,5 0,0 0,0 1,1 5,1 11,3 17,5l6 2 16 5 52 18z"/>
  <g id="_2122678934256">
   <path class="fil16" d="M1 531c0,-45 0,-8 17,-19 10,-6 2,38 17,19 10,-13 0,8 25,-4 11,-4 9,31 18,-10 1,0 26,5 30,-9 2,-6 -6,8 14,-3 22,-11 3,26 19,17 7,-4 13,8 20,-13 14,-3 14,8 36,-2 33,-14 24,7 44,-8 17,-13 8,31 38,2 14,-13 -9,36 27,1 0,-14 21,21 43,0 9,-8 15,21 14,29m-362 0l362 0 0 73 -362 0 0 -73z"/>
   <path class="fil16" d="M42 524c0,0 0,0 0,0 0,0 0,0 0,0zm39 2l0 0c-2,3 -4,3 -6,2l2 3 -3 0 1 3c-2,-2 -3,-2 -3,-2l-3 0 0 3 -2 -3c0,3 -2,3 -6,1l-1 -1 -1 3 -2 -4 -2 2 -1 -3c1,0 0,0 -3,1 -7,-2 -10,-5 -9,-7 0,0 0,0 0,0 -3,6 -4,11 -1,14l-15 -1c5,-4 6,-9 4,-16 0,3 -3,5 -9,7 -3,-1 -4,-2 -3,-1l-2 3 -1 -3 -2 4 -1 -3 -1 2c-4,2 -6,1 -6,-2l-2 3 0 -2 0 -1 0 0 0 -10c1,0 2,0 2,0 4,-2 7,-3 9,-3 -1,-1 -2,-3 -2,-4 -6,3 -9,2 -8,-2l-1 0 0 -4c3,1 6,0 8,-2 -3,1 -4,1 -3,-3 -3,3 -5,3 -4,0l-1 -1 0 -4c1,-1 1,-2 1,-4 4,4 9,3 18,-1 -1,-1 -2,-1 -5,0 -3,-2 -5,-5 -7,-7l-1 1c0,0 -1,-1 -2,-1 -2,0 -2,-1 -2,-2l-2 0 0 -4c1,0 1,0 0,-1 0,-2 0,-2 1,-2 3,2 4,3 5,3l1 -3 -3 -2 3 0c0,-1 2,-1 4,0 1,0 1,-1 0,-3 0,0 -1,0 -3,0l0 -1 -2 0 1 -2 -4 0c1,0 1,-1 1,-2 -1,1 -2,1 -2,0 0,0 0,0 0,-1 1,-1 2,0 4,1 2,-1 3,-2 3,-4 1,1 4,2 6,3 -1,-2 -2,-3 -1,-4 0,-1 2,0 7,3 9,-4 12,-8 10,-10 1,2 -1,3 -4,4 -2,0 -4,1 -6,1 -3,2 -4,2 -5,1l4 -4 -5 3c-1,1 -2,1 -3,0l2 -5 -2 0c-2,2 -4,3 -5,3 -2,-2 -1,-3 2,-4l-5 0c-2,0 -3,-1 -4,-1l0 -2c4,0 6,0 6,-1 0,-1 0,-2 2,-2 4,3 7,5 10,5 -2,-3 -3,-4 -2,-3 0,-1 2,0 5,2 2,1 6,1 11,0l-1 -4c-1,3 -3,4 -5,3l1 -3c-1,1 -2,2 -3,1 -2,0 -1,-1 1,-3 -3,1 -5,1 -5,0 -3,1 -5,1 -6,0 -1,-2 0,-3 5,-3 -2,-1 -2,-2 -1,-2 -1,-1 -2,-1 -3,-2 -1,0 -2,0 -2,-1 0,-1 2,-1 4,-1 -3,-1 -4,-2 -4,-5 1,0 4,2 9,4 0,-1 1,-1 3,-1 -3,-2 -4,-3 -3,-5 0,0 2,0 4,1 0,1 1,0 0,-3l-1 1c-2,1 -2,0 -3,-2 2,0 2,0 2,-2l-3 -4c-1,-1 -1,-2 1,-3 1,2 3,3 4,3 0,-1 0,-1 1,-2 1,-1 2,1 2,5 0,3 1,4 2,3l0 -6 -4 -6c-1,-1 -1,-2 0,-3l4 5 0 -11 4 3 0 1 0 10 4 -4c1,1 1,2 0,3l-4 5 0 6c1,1 2,1 2,-2 0,-4 1,-6 2,-6 1,1 1,2 1,3 1,0 3,-1 4,-3 1,1 2,2 1,3l-3 4c-1,1 0,2 2,2 -1,2 -2,2 -3,2l-1 -1c-1,3 -1,4 0,3 2,-1 3,-2 4,-1 0,1 -1,3 -3,4 2,0 3,1 3,2 5,-3 8,-4 9,-4 0,2 -1,4 -4,4 2,0 3,1 4,2 0,1 -1,1 -2,1 -1,1 -2,1 -3,1 1,1 1,2 -1,3 5,0 6,1 4,2 0,2 -2,2 -5,1 0,1 -2,1 -5,0 2,2 3,3 1,3 -1,0 -2,0 -3,-1l1 2c-2,1 -4,1 -5,-2l-1 4c5,1 9,1 10,0 4,-2 6,-3 6,-2 1,-1 0,0 -2,2 3,0 6,-1 10,-4 1,0 2,1 2,2 0,1 2,1 6,1 1,1 0,2 -4,3l-5 0c3,1 3,2 2,3 -2,1 -3,0 -5,-3l-2 1 1 4c0,1 -1,1 -2,0l-5 -3 4 4c-1,2 -3,2 -5,0 -2,-1 -4,-1 -6,-1 -4,-1 -5,-3 -5,-5 -2,3 2,7 11,11 4,-3 7,-4 7,-3 1,1 0,2 -2,3 3,0 5,-1 7,-2 0,2 1,3 3,3 2,-1 3,-1 4,-1 0,1 0,2 0,2 -1,1 -2,1 -3,0 0,1 1,1 2,2l-4 0 1 1 -2 0 0 2c-2,0 -3,0 -3,0 -2,2 -2,3 0,3 2,-2 4,-2 4,-1l3 0 -3 3 1 3c0,0 2,-1 5,-3 1,-1 1,0 0,1 0,2 1,2 4,1l3 0c-1,2 -3,3 -5,2 0,0 0,0 0,2 2,0 0,0 -4,1 1,1 1,2 -2,2 -1,0 -1,0 -1,1l-1 -2c-2,3 -5,5 -7,7 -3,0 -4,0 -5,0 8,5 14,5 18,2 0,3 0,4 2,3l4 -1 1 2c-2,0 -3,1 -5,3l-2 1c0,3 -1,4 -4,1 1,3 0,4 -3,2 3,3 6,4 10,1 1,2 3,2 6,1l-4 3 -1 3 -4 -1c0,4 -2,4 -8,1 0,2 -1,3 -3,5 3,-1 6,0 9,3 2,-1 4,-1 8,0 2,0 3,1 4,4l3 0zm-21 -12l-5 1 3 -1c1,0 1,0 2,0zm-48 -3c1,0 1,-1 2,-1l2 1 -4 0z"/>
   <path class="fil17" d="M42 524l0 0 1 0 0 0 0 0 0 0 0 0c-1,0 -1,1 -1,1l0 0c0,0 0,1 1,1l0 0c0,1 1,2 2,3l0 0c2,0 4,1 6,2l3 -1 0 0 0 0 1 2 1 -1 1 -1 0 1 2 2 1 -1 0 -1 1 0 0 2c2,1 3,1 4,1 1,0 1,-1 1,-2l0 -2 1 1 1 2 0 -1 0 0 1 0 2 0c1,-1 2,0 3,1l0 -2 0 0 0 0 2 -1 -1 -1 -3 -2 3 1c1,0 2,0 3,0 1,0 2,-1 3,-2l-3 1 -1 0 0 -1c0,-1 0,-2 -1,-3 0,0 -1,0 -2,0l0 0 0 0c-2,-1 -3,-1 -5,-1 -1,0 -2,0 -2,0l-1 1 0 -1c-2,-1 -3,-2 -5,-2 -1,-1 -3,-1 -4,-1l-1 0 1 -1c1,0 1,-1 2,-2 0,0 0,-1 0,-1l-4 0 -2 1 2 -2 3 -1 0 0 0 0c0,0 1,0 1,1l0 0 1 0 0 0 0 0 0 0 0 0 0 0 0 0 0 0 0 0 0 0 0 0 0 0c2,1 4,2 5,2 1,0 1,0 2,0l0 0c0,-1 0,-1 0,-1 0,-1 0,-1 0,-2l0 -1 1 0 4 1 0 -2 0 0 1 0 2 -2c-2,0 -3,0 -4,-1 -2,1 -4,1 -5,1 -2,0 -4,-1 -6,-2l-3 -3 4 2c1,1 2,1 3,1l0 0c0,-1 0,-2 -1,-3l0 -2 1 1c1,1 2,2 3,2l0 0c0,0 0,0 0,0l0 0c0,0 0,0 0,0 0,0 0,-1 0,-2l0 0 0 0 3 -2c1,0 1,-1 2,-2 1,0 1,0 2,0l-1 -2 -3 1c0,1 -1,1 -1,1 0,0 -1,0 -1,-1 0,0 0,0 0,-1 -1,0 -1,-1 -1,-1 -1,1 -4,2 -6,1 -3,0 -7,-1 -11,-3l0 -1 0 0c0,0 1,-1 2,-1 0,1 1,1 3,1 1,-1 2,-2 3,-3 1,-1 2,-3 3,-4l1 0 0 0 1 1c0,0 0,0 0,0 0,0 1,-1 1,-1l0 0 0 0c1,0 2,0 2,0l0 0c0,0 0,-1 0,-1l0 -1 0 0 4 0 -1 -2 0 0 1 0c2,0 3,0 4,-2l-2 0c-1,1 -2,1 -3,1 -1,0 -2,-1 -1,-2 0,0 0,-1 0,-1 0,0 0,0 0,0 -1,1 -2,2 -3,2 -1,1 -2,1 -2,1l-1 0 0 0 0 -3 0 0 0 0 2 -2 -2 0 0 0 0 0c0,-1 -1,-1 -1,-1 -1,0 -2,1 -3,1l0 0 0 0c-1,0 -2,0 -2,-1 0,0 1,-1 1,-2l0 0 1 0c0,-1 1,-1 2,0l0 -2 0 0 1 0 1 0 0 -1 0 0 0 0 3 -1c0,0 -1,0 -1,0l0 0c0,0 0,-1 0,-1l0 -1c0,0 -1,0 -1,1l0 0 0 0c-2,-1 -3,-2 -3,-3 -2,1 -4,1 -7,2l-2 0 2 -1c0,0 1,0 1,0 0,-1 1,-1 1,-2 0,0 0,-1 -1,-1l0 0c0,0 0,0 0,0l0 0 0 0c0,0 0,0 -1,0 -1,1 -3,2 -5,3l0 0 0 0c-5,-2 -8,-4 -10,-6 -2,-2 -2,-3 -1,-5l1 -2c0,0 -1,0 -1,0l-1 0 0 0 1 -4 0 -1 1 1c1,1 1,2 2,2 1,0 1,0 2,0l0 -2 -1 -1 1 1c1,0 1,0 2,1 0,0 1,0 1,0l0 0c0,0 0,0 0,-1l0 0c1,0 1,0 1,0 0,0 -1,0 -1,0 0,-1 -1,-1 -1,-2l-3 -2 3 1c1,1 3,1 3,1 1,0 2,0 2,0l0 -1 0 0 1 0c1,1 2,1 3,1 0,0 1,0 1,-1l0 0 0 0 0 0 0 0c1,0 1,-1 0,-1l0 0c0,0 -2,-1 -4,-1l-2 0 2 -1c1,0 1,-1 1,-1l0 0c0,0 0,0 0,0l-1 -1 1 0c1,0 1,0 1,-1l0 0c1,0 1,0 1,0l1 -1 0 0c0,1 1,1 1,0l0 0c0,0 0,0 0,0 0,0 0,-1 -1,-1 0,0 -1,0 -2,0l-6 1 6 -2c1,0 2,-1 3,-2 0,0 0,-1 0,-2 0,0 -1,1 -2,1 -2,1 -4,2 -6,3l0 1 0 -1c-1,0 -1,-1 -1,-1 -1,0 -1,0 -2,0l-2 0 2 -1c1,-1 2,-1 2,-2 1,-1 1,-1 1,-2 -1,0 -1,0 -1,0l0 0c-1,0 -2,0 -2,1 -1,1 -2,1 -2,0 0,-1 0,-2 0,-3l1 -1 0 0 1 1c1,0 1,0 1,0 0,0 0,0 0,0 1,0 1,0 1,0 0,0 0,0 0,-1 -1,0 -1,0 -1,0l0 0c-1,-1 -1,-1 -1,-2l0 0 0 0 3 -4c1,-1 1,-1 1,-2 0,0 0,0 -1,0 0,0 -1,1 -2,2 -1,0 -1,0 -2,0l-1 0 0 0c1,-1 1,-1 1,-1 0,-1 -1,-1 -1,-1 0,0 0,0 0,0l0 0c0,0 0,0 0,0 -1,0 -1,0 -1,0l0 0c0,1 0,3 0,5l0 0 0 0c-1,1 -1,2 -1,3 0,0 -1,0 -1,0 0,0 -1,0 -1,0l0 0c0,0 0,0 0,-1l-1 0 0 0 0 -6 0 0 1 0 4 -5 0 0 0 -1c0,0 0,0 0,-1 0,0 0,0 0,-1l-4 5 -1 0 0 -1 0 -10 0 -1 0 0 0 0 -2 -2 0 10 0 1 -1 -1 -4 -4c-1,0 -1,0 -1,1l0 0c0,0 1,0 1,1l0 0 0 0 4 6 0 0 0 0 0 6 0 0 0 0c0,1 -1,1 -2,0l0 0c0,0 0,-1 -1,-2l0 0 0 0c0,-3 0,-4 0,-5l0 0c0,-1 -1,-1 -1,-1l0 0c0,0 0,0 0,0l0 0c0,0 0,0 0,0 -1,0 -1,1 -1,1 0,0 0,1 0,1l1 1 -1 0c-1,0 -2,-1 -2,-1 -1,-1 -2,-1 -3,-2 0,0 0,0 0,1 0,0 0,0 1,1l3 4 0 0 0 0c0,1 0,2 -1,2 0,0 -1,1 -1,1 0,0 0,0 0,0 0,0 0,1 0,1l0 0c1,0 1,0 1,0 0,0 0,0 0,0l2 -1 0 -1 0 1c1,2 1,3 1,3 0,1 -1,1 -2,0 -1,0 -1,-1 -2,-1 0,0 -1,0 -1,0 0,1 0,2 1,2 0,1 1,2 2,2l2 1 -2 0c-1,0 -1,0 -2,0 0,1 0,1 -1,2l0 0 0 0c-3,-2 -5,-3 -6,-3 -1,-1 -2,-1 -2,-1 -1,1 0,1 0,2 1,1 2,1 3,1l6 2 -6 -1c-1,0 -2,0 -3,0 0,1 0,1 0,1 0,1 0,1 0,1 0,0 1,0 1,0l0 0 0 0c1,0 1,0 1,1 1,0 1,0 2,0l1 0 -1 1c0,0 0,0 0,0 0,0 0,0 0,0 0,1 0,1 0,1l0 0c0,0 0,0 1,0l1 1 -1 0c-2,1 -4,1 -4,1 -1,0 -1,1 -1,1 0,0 0,0 0,0 0,0 0,0 1,0l0 0 0 0c0,1 0,1 1,1 1,0 2,0 4,0l0 0 0 0c0,0 1,0 2,0 0,0 1,0 3,0l3 -1 -3 2c-1,0 -1,1 -2,1 0,1 0,1 1,1l0 0c0,0 1,0 1,0 0,0 1,-1 2,-1l1 -1 -1 1 0 2c0,1 1,1 2,0 1,0 1,-1 2,-2l0 -1 1 1 1 4 0 0 -1 0c0,1 -1,1 -1,1l1 1c1,2 1,4 -1,6 -2,1 -5,3 -10,5l0 1 0 -1c-3,-1 -4,-2 -5,-2 -1,-1 -1,-1 -1,-1l0 0 0 0c-1,1 -1,1 -1,2l0 0c0,0 1,1 2,1l1 2 -2 -1c-1,0 -2,0 -3,-1 -1,0 -2,-1 -3,-1 0,2 -1,3 -3,3l0 0 0 0c0,0 -1,0 -1,0l0 0c0,1 0,1 -1,1l0 0c0,1 0,1 0,1l3 0 0 0 0 1 0 0 1 0 1 0 0 1 -1 1c1,0 2,0 2,0 1,0 1,0 1,0l0 0 0 0c1,1 2,2 1,2 0,1 0,2 -1,2l0 0 -1 0c0,-1 0,-1 0,-1 -1,0 -2,-1 -2,-1 -1,0 -1,1 -1,1l0 0 0 0 0 0 -2 0 2 2 0 0 0 0 0 3 0 1 -1 0c0,-1 -1,-1 -2,-1 -1,-1 -2,-2 -3,-3 0,0 0,1 0,2 0,1 0,1 -1,2l0 -1c0,-1 0,-1 0,-1l0 -2c0,-1 1,-1 1,0l0 0 0 0c2,1 3,1 4,2 0,0 0,0 1,0l0 -2 -2 -2 -1 -1 1 0 2 0c1,0 1,0 2,0 0,0 1,0 2,0 0,0 1,1 1,1 0,0 1,0 1,-1 0,0 -1,-1 -1,-1 0,0 -1,0 -1,0 -1,0 -1,0 -2,0l-1 0 0 -1 1 -1 -2 0 -1 0 0 0 1 -1 -3 -1 -2 0 2 -1c0,0 0,0 1,0 -1,0 -1,0 -1,0 -1,0 -1,0 -2,0l0 -1 1 0c0,0 0,0 0,0l0 0c0,0 0,-1 0,-1l0 0 0 -1c0,0 1,0 2,0l0 0c0,0 1,1 2,1 2,0 2,-1 2,-3l0 -1 1 1c1,0 2,1 3,1 0,1 1,1 2,1 0,0 -1,-1 -1,-1l0 0c0,-1 0,-2 1,-2 0,-1 1,-1 2,0l0 0c0,0 0,0 0,-1 0,0 0,0 -1,0l0 0 1 -1 1 -1 -1 1c-1,0 -2,1 -2,1 -1,0 -1,0 -1,0 0,0 -1,0 -1,-1 0,0 0,0 0,0l0 0 0 0 1 -5 -1 0c-1,1 -2,2 -3,3 -1,0 -2,0 -3,0l0 0 0 0c0,0 0,-1 0,-1l0 0c0,0 0,-1 0,-1 0,0 0,-1 0,-1 1,0 1,0 1,0l-3 0 0 0 0 0c-2,-1 -3,-1 -4,-2l0 -3 0 0c2,1 3,1 4,1 1,0 2,-1 2,-1 0,0 0,-1 0,-1 0,-1 1,-1 1,-1l0 0 0 0 1 -1 0 1c2,1 4,2 5,3 2,1 3,1 4,1l-2 -2 0 0 0 0 0 0 0 0c1,-1 1,-1 2,-1 0,0 1,1 2,1l0 0c1,0 2,1 3,2 0,0 2,1 4,1 1,-1 3,-1 6,-1l-1 -2c0,0 -1,1 -2,1 -1,1 -2,1 -3,0l0 0 0 0 0 -2c0,1 0,1 -1,1 0,0 -1,0 -1,0 -1,0 -2,-1 -2,-2 1,0 1,0 1,-1 0,0 -1,0 -1,0 -1,0 -2,0 -2,0 -2,0 -3,0 -4,0 -1,0 -2,0 -2,-1 0,0 -1,-1 -1,-1l0 0c0,0 0,-1 0,-1 0,0 1,0 1,-1 1,0 2,0 3,0 0,-1 0,-1 0,-1 0,0 0,0 0,0 0,-1 0,-1 0,-1l0 0c0,0 0,0 0,0 0,0 -1,0 -1,-1 0,0 -1,0 -1,0 -1,0 -1,0 -1,0 -1,-1 -1,-1 -1,-1l0 -1 0 0c0,0 0,-1 1,-1 0,0 0,-1 1,-1 -1,0 -1,0 -2,-1 0,0 -1,-2 0,-3l0 0 0 0c1,0 2,0 3,1 2,0 4,1 6,3 0,-1 0,-1 1,-1 0,0 0,-1 1,-1 -1,0 -2,-1 -2,-1 -1,-1 -1,-2 -1,-3l1 0 0 0c0,-1 0,-1 1,-1 0,0 -1,0 -1,0 0,-1 0,-1 0,-1l0 -1 0 0c1,0 1,0 2,-1l0 0c0,0 0,0 0,-1l-3 -3 0 0 0 0c-1,-1 -1,-2 -1,-3 0,0 1,-1 1,-1l1 0 0 0c1,1 1,2 2,2 1,0 1,1 1,1 0,-1 0,-1 0,-1 0,-1 1,-1 1,-2l0 0 0 0c1,0 1,0 1,0l0 0c0,0 1,0 1,0l0 0c0,1 0,1 0,1l0 0c1,1 1,3 1,5 0,2 1,2 1,3l0 0c0,0 0,0 0,-1l0 -5 -4 -6c0,0 0,-1 -1,-1 0,-1 1,-1 1,-2l0 -1 1 1 4 4 0 -10 0 -1 1 1 3 2 0 0 0 1 0 1 0 9 4 -4 0 0 1 0c0,1 0,2 0,2 0,1 0,2 -1,2l-4 6 0 5c0,0 1,0 1,0l0 0c0,0 0,0 0,0 0,0 0,0 0,0 0,0 0,-1 1,-2 0,-2 0,-4 0,-5l0 0c1,0 1,-1 1,-1 0,0 1,0 1,0l0 0c0,0 0,0 1,0l0 0 0 0c0,1 0,1 1,2 0,0 0,0 -1,0 1,0 1,0 2,0 0,-1 1,-1 2,-2l0 0 0 0c1,0 2,0 2,1 0,1 0,1 -1,2l0 0 0 0 -3 4c0,1 0,1 0,1l0 0c1,0 1,1 2,1l0 0 0 0c0,1 0,1 0,1 -1,1 -1,1 -1,1 1,0 1,0 1,0l0 0 0 1c1,1 1,2 0,2l0 0c0,1 -1,2 -2,2 1,0 1,0 1,0 1,1 1,1 1,1 2,-1 4,-2 5,-3 2,0 3,-1 4,-1l0 0 0 1c0,1 0,2 -1,3 0,0 0,1 -1,1 0,0 1,0 1,0 1,1 1,1 1,2l0 0 0 0c0,1 0,1 -1,1l0 0c0,0 -1,0 -1,0 0,1 -1,1 -1,1 0,0 -1,0 -1,1 0,0 0,0 0,1l0 0c0,0 0,0 -1,0 2,1 3,1 4,1l0 0c1,1 1,2 0,3 0,0 -1,1 -2,1 -1,0 -2,0 -4,-1 0,1 -1,1 -2,1 0,0 -1,0 -1,0 0,0 0,0 0,0 0,1 0,1 0,1 0,1 0,1 0,1l0 0c0,0 0,0 -1,1l0 0c0,0 -1,0 -1,-1 -1,0 -1,0 -1,0l0 1 0 1 0 0c-1,0 -2,0 -3,0 -1,0 -2,-1 -2,-2l-1 2c5,1 8,1 10,0 1,0 2,-1 3,-1 1,-1 1,-1 2,-1 1,0 1,0 1,0l1 0 0 0 0 1 0 0 -2 2c1,0 2,-1 3,-1 2,-1 4,-2 6,-4l0 0 0 0 1 0 0 0c0,1 1,1 1,1 0,1 0,1 0,2 0,0 1,0 1,0l0 0c1,0 3,0 5,0l0 0 0 0c0,1 0,1 0,1 1,0 1,1 0,1 0,0 0,1 0,1 -1,1 -2,1 -4,2l0 0 0 0 -3 -1c1,1 2,2 1,3l0 1 -1 0c-1,0 -2,0 -3,-1 -1,0 -1,-1 -2,-2l-1 0 1 4 0 0 0 0c0,1 0,1 0,1 0,0 -1,0 -1,1l0 0c0,0 0,0 -1,0 0,-1 -1,-1 -2,-1l-1 -1 1 1 1 0 -1 1c0,0 0,0 0,0 0,0 0,0 0,0l0 0c1,0 2,0 2,0 0,0 0,1 0,1l0 0c1,0 1,1 1,1 0,1 -1,1 -1,2 2,-1 4,-2 5,-3l1 0 0 1c0,1 0,2 2,3 1,-1 2,-1 2,-1 1,0 2,0 2,0l0 0 0 0c0,1 0,1 0,1 0,1 0,1 0,1l1 0 -1 0c0,1 -1,1 -1,1l0 0c0,0 -1,0 -1,0 0,0 1,0 1,0l2 1 -2 0 -3 0 0 1 1 1 -1 0 -2 0 0 1 1 1 -1 -1c-2,0 -3,0 -3,0 -1,1 -1,2 -1,2 0,0 1,0 1,1 1,-1 2,-2 3,-2 1,0 1,0 2,1l2 0 1 0 -1 1 -2 2 0 2c0,0 1,0 1,0 1,-1 2,-2 3,-3l0 0 1 0c0,0 1,0 1,1l0 0c0,0 0,1 0,2l0 0c0,0 0,0 0,0l0 0c0,0 2,0 3,-1l0 0 0 0 3 0 1 0 -1 1c-1,2 -2,3 -5,3l1 1 0 1 -1 0 -3 0c0,1 0,1 0,1l0 0c-1,1 -1,1 -3,1 0,0 0,0 0,0 0,1 -1,1 0,1l0 2 -1 -2 -1 -1c-1,1 -2,2 -3,3 -1,2 -3,3 -4,4l0 0 0 0c-2,0 -3,-1 -3,-1l0 0c3,2 6,3 9,4 3,0 5,-1 7,-2l1 -1 -1 1c0,1 0,2 0,2 0,0 1,1 1,1 0,0 0,0 0,0 0,0 0,0 1,0l0 0 0 0 4 -2 0 0 0 1 1 2 0 0 0 0c-1,1 -2,1 -2,1 -1,1 -2,1 -2,2l0 0 0 0 -3 2c0,0 0,1 0,1 0,1 0,1 0,1 -1,0 -1,0 -1,0 -1,0 -2,0 -3,-1 1,1 1,2 0,2l0 0c0,1 0,1 -1,1 1,0 2,0 3,0 1,0 3,0 5,-1l0 0 0 0c1,1 3,2 6,1l3 -1 -2 1 -5 3 0 3 0 1 -1 -1 -4 -1c0,1 0,1 0,2 0,1 0,1 -1,1l0 0c0,1 -1,1 -2,1 -1,0 -3,-1 -5,-2 0,1 0,1 -1,2 0,0 0,1 -1,1 1,0 2,0 3,1 2,0 4,1 5,3 1,-1 2,-1 3,-1 2,0 3,0 5,1 1,0 2,0 3,1 0,0 1,1 1,3l3 -1 0 2c0,1 -1,2 -2,2 -1,0 -2,0 -2,0l1 1 0 1 -1 0 -2 1 0 2 1 1 -1 -1c-2,-1 -3,-2 -3,-2l0 1 0 0 -3 0 0 1 1 2 -1 -1 -2 -2c0,1 -1,1 -2,2 -1,0 -2,0 -4,-1l0 0 0 -1 -1 0 0 2 -1 1 0 -1 -2 -3 -1 2 -1 0 0 0 -1 -3 -3 1 0 0 -1 0c-2,-1 -4,-2 -5,-3 -1,-1 -2,-1 -3,-2l0 0c0,0 0,-1 0,-1 -2,2 -2,4 -2,6 0,2 0,4 1,6l1 1 -1 -1 -15 -1 -1 0 1 0c2,-2 4,-5 4,-7 0,-2 0,-4 0,-7 -1,1 -1,2 -2,2 -2,1 -4,2 -7,3l0 0 0 0 -3 -1 -1 3 -1 1 0 -1 -1 -2 -2 3 -1 1 0 -1 0 -2 -1 1 0 0 0 0c-2,1 -4,1 -5,1 0,0 -1,-1 -1,-2l-2 2 0 0 0 -3 0 0 1 0 0 1 0 0 1 -1 1 -1 0 1c0,1 0,2 1,2 0,0 2,0 3,-1l1 -1 1 -1 0 1 1 2 2 -3 0 -1 0 1 1 2 2 -3 0 0 0 0 3 1c3,-1 5,-1 6,-2 2,-1 2,-2 2,-4l0 -2 1 2c1,4 1,6 1,9 -1,2 -2,5 -4,7l13 0c-1,-1 -1,-3 -1,-5 0,-2 1,-5 3,-8l0 0 0 0 0 0 0 0zm-39 -44l3 1 0 0 0 0c0,1 -1,1 0,1 0,0 0,0 2,1l0 0 0 0c0,0 1,0 1,0l0 0c0,0 0,0 0,0l1 -1 0 0 1 0c1,2 2,3 3,4 1,1 2,2 3,3 2,0 2,0 3,0 1,0 2,0 2,0l0 1 0 0c-4,2 -8,4 -11,4 -3,0 -5,0 -7,-2 0,1 0,2 0,2 0,1 0,1 -1,1l0 -1c0,0 0,0 0,0 1,-1 1,-1 0,-3l0 -1 1 1c2,2 4,2 7,2 3,0 6,-1 9,-3l0 0c0,0 -1,0 -3,0l0 0 0 0c-1,-1 -3,-2 -4,-3 -1,-1 -2,-2 -3,-4l-1 2 -1 1 0 -2c0,0 0,0 0,0l0 0c0,0 0,-1 -1,-1 -1,0 -2,0 -2,0 0,-1 -1,-1 0,-2l-2 0 0 -1zm0 18l1 1 1 0 0 1c-1,1 -1,1 -1,1 0,1 1,1 1,1 0,0 0,0 0,0 1,-1 2,-1 3,-2l1 -1 0 1c-1,1 -1,2 -1,2 0,1 0,1 0,1 0,0 1,0 1,0 0,0 1,0 2,-1l3 -1 -2 2c-2,2 -4,2 -6,3 -1,0 -2,0 -3,-1l0 -1c1,1 2,1 3,1 1,0 2,-1 3,-1 -1,0 -1,0 -1,0 -1,-1 -1,-1 -1,-1 0,-1 0,-1 0,-2 0,1 -1,1 -2,1 0,1 0,1 -1,0 0,0 0,0 0,0 -1,-1 0,-1 0,-2l-1 0 0 -2zm0 11l1 0 1 0 0 0c-1,1 -1,2 0,2 0,0 0,1 0,1 1,0 1,0 2,0l0 0c1,0 3,-1 5,-2l0 0 0 0 0 0c1,0 1,0 2,0l0 -1 0 1 3 1 2 1 -3 0 -3 -1c0,1 0,1 0,2 1,0 1,1 2,2l1 1 -2 0c-1,-1 -2,-1 -3,0 -2,0 -3,1 -5,3l-1 0 0 0c0,-1 -1,-1 -2,-1l0 -1c1,0 2,1 2,1 2,-1 4,-2 5,-3 2,0 2,0 3,0 0,-1 0,-1 -1,-2 0,0 0,-1 0,-2 -2,1 -4,2 -5,2 -1,0 -2,0 -2,0 -1,-1 -1,-1 -1,-2 0,0 0,-1 0,-1l-1 0 0 -1zm55 5l0 0 0 0 0 0zm-44 -4l0 1 0 0 0 -1zm50 -43l1 0c0,1 1,1 1,1 0,0 0,0 0,0l0 0c0,0 0,-1 0,-1 0,0 0,0 -1,0 0,0 0,0 -1,0zm-16 -2c2,-1 3,-2 4,-2 0,0 0,0 0,0l0 0c-1,0 -2,0 -3,-1 0,0 -1,0 -2,-1 -1,0 -1,0 -2,0 -1,0 -2,0 -3,-1l0 0 -1 0c-1,0 -2,-1 -3,-2 0,0 0,0 0,0 0,0 0,1 1,2 2,1 5,3 9,5zm-10 -12l0 2c0,1 0,2 1,3 0,0 1,1 3,2 1,0 2,0 3,0l0 0c1,0 2,0 3,0l0 0 0 0c1,1 1,1 2,1 1,1 1,1 2,1l0 0c0,0 0,0 0,0l-4 -4 -2 -3 3 2 5 3 0 0c1,0 1,1 1,1l0 0c1,0 1,0 1,0 0,0 0,0 0,0 0,0 0,-1 0,-1l-1 -4 -1 -1 1 0 2 0 0 0 0 0c1,1 2,2 3,2 1,1 1,1 2,1 1,-1 0,-2 -2,-3l-3 -1 3 0 5 1c1,-1 2,-1 3,-2 0,0 1,0 1,0 0,0 0,-1 0,-1l0 0c0,0 0,0 0,0 -2,0 -4,0 -5,0 -1,0 -2,0 -2,-1l0 0 0 0 0 0 0 0c0,-1 0,-1 0,-1 0,0 0,-1 -1,-1 -2,2 -4,3 -5,4 -2,0 -4,1 -5,1l-1 0 0 -1 2 -2c0,0 0,0 0,0 0,0 -1,0 -2,1 0,0 -1,1 -2,1l0 0 0 0c-2,1 -5,1 -10,0zm5 -22c1,0 1,-1 2,-1 0,0 0,0 0,0 0,0 -1,0 -1,0l0 0 -1 0c0,0 0,1 0,1l0 0zm-16 -4c0,0 0,0 0,0 0,0 1,0 2,1l0 0c0,-1 0,-1 0,-2l-1 0 0 0c0,0 -1,1 -1,1zm7 23c-2,0 -4,0 -5,0 -2,0 -4,0 -5,0l0 0 0 0c-1,-1 -2,-2 -3,-2l0 0c0,-1 -1,-1 -1,-1l0 0c0,0 -1,0 -1,0l2 2 1 1 -1 0c-1,0 -3,0 -5,-1 -2,-1 -3,-2 -5,-4 -1,1 -1,1 -1,1l0 0c0,0 0,1 0,1l0 0 0 0 0 0c-1,1 -1,1 -3,2 -1,0 -2,0 -4,-1 0,1 0,1 1,1 0,1 1,1 3,2l5 0 3 0 -3 1c-1,0 -2,0 -2,1 0,0 0,0 0,0 -1,0 -1,1 0,1 0,0 0,0 0,0 1,0 1,0 2,0 1,-1 2,-2 3,-3l0 0 0 0 2 1 0 0 0 0 -1 5c0,0 0,0 0,0l0 0c0,0 0,0 0,0 0,0 0,0 0,0l0 0c1,0 1,0 2,-1l0 0 5 -3 3 -1 -3 2 -4 4c1,0 1,0 1,0 1,0 1,0 2,0 1,-1 1,-1 2,-1l0 -1 0 0c1,0 2,0 3,0l0 0c1,0 2,0 3,0 2,-1 3,-1 3,-2 1,-1 1,-1 1,-2l0 -2zm-14 9c0,0 0,0 0,0 1,1 2,1 4,3 4,-2 7,-4 9,-6 1,-1 1,-1 1,-2 0,0 0,0 0,1 -1,0 -2,1 -4,2l0 0 0 0c-1,0 -2,0 -3,0 -1,0 -2,0 -3,0 0,1 -1,1 -2,2 0,0 -1,0 -2,0zm-12 4c-1,0 -1,0 -2,0 0,0 0,0 0,0 0,0 0,1 -1,1l0 0 0 0c1,0 1,0 1,0l0 0c0,0 1,0 1,0l1 -1z"/>
   <path class="fil16 str0" d="M101 540c0,0 0,0 0,0 0,0 0,0 0,0zm11 -10l-3 0 2 -1c0,0 1,1 1,1zm-30 -4c0,0 1,0 1,-1l2 2 -3 -1zm9 26l9 2c-2,-4 -1,-9 1,-14 0,0 0,0 0,0 -1,2 1,4 5,7 2,-1 3,-2 2,-1l1 3 1 -3 2 4 0 -3 1 2c2,2 3,1 3,-2l2 3 0 -2 1 0c0,-1 1,0 3,1l-1 -2 2 -1 -1 -2c1,1 3,0 4,-3l-3 1c0,-3 -1,-5 -2,-4 -2,-1 -4,-1 -5,0 -2,-3 -4,-4 -5,-4 0,-1 1,-3 1,-4 4,3 6,2 5,-2l3 1 0 -2 3 -3c-2,1 -3,0 -4,-1 -2,2 -4,2 -6,-1 2,2 2,1 1,-3 3,3 3,3 3,0l2 -2c0,-1 1,-2 3,-3l-1 -2 -3 2c-1,0 -1,-1 -1,-4 -2,4 -6,3 -11,-1 0,-1 1,-1 3,0 2,-2 3,-4 4,-7l1 2c0,-1 0,-2 1,-2 1,0 2,-1 1,-2 3,0 3,0 3,0 -1,-2 -1,-3 -1,-2 2,0 3,-1 4,-3l-2 0c-2,2 -3,2 -3,0 1,-1 1,-2 0,-2 -2,2 -3,3 -3,3l0 -3 1 -2 -1 0c-1,-1 -2,-1 -3,1 -1,-1 -1,-2 0,-3 0,-1 1,-1 2,0l0 -2 1 0 0 -1 2 -1c-1,0 -1,-1 -1,-2 1,1 1,1 2,1 0,0 -1,-1 -1,-2 0,0 -1,0 -2,1 -1,-1 -2,-2 -2,-4 -1,2 -2,2 -4,3 1,-1 1,-3 1,-4 0,-1 -2,1 -4,3 -6,-4 -8,-7 -7,-10 0,2 1,3 3,5 1,0 2,0 3,0 2,2 3,3 4,1l-3 -4 3 3c1,1 2,1 2,0l-1 -5 1 0c1,2 2,3 4,3 0,-2 0,-3 -2,-4l3 1c3,-1 3,-3 3,-4 -3,1 -4,0 -4,-1 0,-1 0,-1 -1,-2 -3,3 -5,5 -7,5 2,-3 2,-4 2,-3 0,-1 -2,0 -4,2 -1,1 -3,1 -7,0l1 -3c1,2 2,3 3,2l0 -2c1,1 1,1 2,1 1,-1 0,-2 -1,-4 2,1 3,1 3,0 2,1 3,1 4,0 1,-1 0,-2 -3,-3 1,-1 1,-1 1,-2 0,0 1,-1 1,-2 1,1 1,0 1,0 0,-2 0,-2 -2,-2 2,-1 3,-2 2,-5 0,0 -2,2 -5,5 0,-2 -1,-2 -2,-2 2,-1 2,-3 2,-5 0,0 -1,0 -2,1 -1,1 -1,0 -1,-3l1 1c1,1 1,0 2,-1 -1,-1 -2,-1 -2,-3l2 -3c1,-2 1,-3 0,-3 -1,1 -2,2 -3,2 1,0 1,-1 0,-2 -1,-1 -1,1 -1,6 -1,2 -1,3 -2,2l0 -6 3 -6c1,0 1,-2 0,-3l-3 5 0 -11 0 -1 -2 -3 0 11 -3 -4c-1,1 -1,2 0,3l3 5 0 6c-1,1 -1,1 -2,-2 0,-4 0,-6 -1,-6 -1,1 -1,2 0,3 -1,0 -2,-1 -3,-3 -1,0 -1,1 0,3l2 4c0,1 -1,2 -2,2 0,2 1,2 2,1l1 0c0,3 0,3 -1,2 -1,-1 -2,-1 -2,0 0,1 0,3 2,4 -1,0 -2,1 -2,2 -3,-3 -5,-4 -6,-4 0,2 1,4 3,4 -2,0 -2,1 -3,2 1,1 1,1 2,1 0,0 1,1 1,1 0,1 0,2 1,2 -3,1 -4,2 -3,3 1,2 2,2 4,1 0,1 1,1 3,0 -2,1 -2,3 -1,3 1,0 1,0 2,-1l0 2c1,1 2,0 3,-2l1 4c-4,1 -6,1 -7,0 -2,-3 -4,-3 -4,-2 0,-1 0,0 2,2 -2,0 -4,-1 -7,-4 -1,0 -1,1 -1,2 0,1 -1,1 -4,0 0,2 0,3 3,4l3 0c-2,1 -2,2 -2,3 1,1 3,0 4,-3l1 0 -1 5c0,1 1,1 2,0l3 -3 -3 4c1,2 2,2 4,-1 1,0 2,0 3,0 2,-1 3,-3 3,-5 1,3 -1,6 -7,11 -2,-3 -4,-4 -4,-4 0,2 0,3 1,4 -2,0 -3,-1 -4,-2 0,2 -1,3 -2,3 -1,-1 -2,-1 -2,-1 0,1 -1,2 -1,2 1,1 1,0 2,0 0,0 0,1 -1,1l2 1 0 1 1 0 0 2c1,0 2,0 2,0 1,2 1,3 0,3 -1,-2 -2,-2 -3,-1l-1 0 1 3 0 3c0,0 -1,-2 -3,-4 -1,0 -1,1 0,2 0,2 -1,2 -3,1l-2 0c1,2 2,2 4,2 0,0 0,0 -1,2 0,0 0,0 3,1 -1,1 0,1 1,1 1,1 1,1 1,2l1 -2c1,3 2,5 4,7 2,0 3,0 3,0 -5,5 -9,5 -11,2 0,3 0,4 -1,3l-3 -1 -1 2c2,0 2,1 3,3l2 1c-1,3 0,3 3,1 -1,3 -1,4 1,2 -2,3 -4,3 -6,1 -1,2 -2,2 -4,1l3 3 0 3 3 -1c-1,4 1,4 5,1 0,2 1,3 1,5 -1,-1 -3,0 -5,3 -1,-1 -3,-1 -5,0 -1,0 -2,1 -2,4l-3 0c1,2 3,3 4,2l-1 3 2 0 -1 3c2,-2 2,-3 3,-2l1 0 0 2 2 -3c0,3 1,4 3,2l1 -1 0 2 2 -3 1 2 1 -3c-1,0 0,0 2,1 3,-1 5,-4 5,-6 1,6 1,11 -2,15z"/>
   <path class="fil16 str0" d="M151 543c0,0 0,0 0,0 0,0 0,0 0,0zm11 -8l-3 0 2 -1c0,1 1,1 1,1zm-30 -3c0,0 1,0 1,-1l2 1 -3 0zm9 21l9 1c-2,-3 -1,-7 1,-11 0,0 0,0 0,0 -1,1 1,3 5,5 2,-1 3,-1 2,-1l1 3 1 -2 2 3 0 -2 1 1c2,1 3,1 3,-2l2 3 0 -2 1 0c0,-1 1,0 3,1l-1 -2 2 0 -1 -2c1,1 3,0 4,-2l-3 0c0,-2 -1,-3 -2,-3 -2,-1 -4,-1 -5,0 -2,-2 -4,-3 -5,-3 0,-1 1,-2 1,-3 4,2 6,2 5,-1l3 1 0 -3 3 -2c-2,1 -3,0 -4,-1 -2,2 -4,2 -6,0 2,1 2,0 1,-2 3,2 3,2 3,-1l2 -1c0,-1 1,-2 3,-2l-1 -2 -3 1c-1,1 -1,0 -1,-2 -2,2 -6,2 -11,-2 0,0 1,0 3,0 2,-1 3,-3 4,-5l1 1c0,0 0,-1 1,-1 1,0 2,-1 1,-1 3,-1 3,-1 3,-1 -1,-1 -1,-2 -1,-1 2,0 3,-1 4,-2l-2 0c-2,1 -3,1 -3,-1 1,-1 1,-1 0,-1 -2,2 -3,2 -3,2l0 -2 1 -2 -1 0c-1,-1 -2,-1 -3,1 -1,0 -1,-1 0,-3 0,0 1,0 2,0l0 -1 1 0 0 -1 2 0c-1,-1 -1,-1 -1,-2 1,1 1,1 2,0 0,0 -1,0 -1,-1 0,0 -1,0 -2,1 -1,-1 -2,-1 -2,-3 -1,1 -2,2 -4,2 1,-1 1,-2 1,-3 0,0 -2,0 -4,3 -6,-4 -8,-6 -7,-9 0,2 1,3 3,4 1,0 2,0 3,1 2,1 3,1 4,0l-3 -3 3 2c1,1 2,1 2,0l-1 -3 1 -1c1,2 2,3 4,3 0,-1 0,-2 -2,-3l3 0c3,-1 3,-1 3,-3 -3,1 -4,1 -4,0 0,-1 0,-2 -1,-2 -3,3 -5,4 -7,4 2,-2 2,-3 2,-2 0,-1 -2,0 -4,1 -1,1 -3,1 -7,0l1 -3c1,2 2,3 3,2l0 -2c1,1 1,2 2,1 1,0 0,-1 -1,-2 2,1 3,1 3,0 2,1 3,0 4,-1 1,-1 0,-1 -3,-2 1,0 1,-1 1,-2 0,0 1,0 1,-1 1,0 1,0 1,0 0,-1 0,-2 -2,-2 2,0 3,-1 2,-3 0,0 -2,1 -5,3 0,-1 -1,-1 -2,-1 2,-1 2,-3 2,-4 0,0 -1,0 -2,1 -1,0 -1,0 -1,-2l1 0c1,1 1,0 2,-1 -1,0 -2,-1 -2,-2l2 -3c1,-1 1,-2 0,-2 -1,1 -2,2 -3,2 1,-1 1,-1 0,-2 -1,0 -1,1 -1,5 -1,2 -1,2 -2,1l0 -4 3 -5c1,0 1,-1 0,-2l-3 3 0 -8 0 -1 -2 -2 0 9 -3 -4c-1,1 -1,2 0,2l3 5 0 4c-1,1 -1,1 -2,-1 0,-4 0,-5 -1,-5 -1,1 -1,2 0,2 -1,0 -2,-1 -3,-2 -1,0 -1,1 0,2l2 3c0,1 -1,2 -2,2 0,1 1,2 2,1l1 0c0,2 0,3 -1,2 -1,-1 -2,-1 -2,-1 0,2 0,3 2,4 -1,0 -2,0 -2,1 -3,-2 -5,-3 -6,-3 0,2 1,3 3,3 -2,0 -2,1 -3,2 1,0 1,1 2,0 0,1 1,1 1,1 0,1 0,2 1,2 -3,1 -4,1 -3,2 1,2 2,2 4,1 0,1 1,1 3,0 -2,1 -2,2 -1,2 1,1 1,0 2,0l0 1c1,1 2,1 3,-1l1 2c-4,1 -6,1 -7,1 -2,-2 -4,-3 -4,-2 0,-1 0,0 2,2 -2,0 -4,-1 -7,-4 -1,1 -1,1 -1,2 0,1 -1,1 -4,1 0,1 0,2 3,2l3 0c-2,1 -2,2 -2,3 1,0 3,-1 4,-3l1 1 -1 4c0,0 1,0 2,-1l3 -2 -3 3c1,2 2,1 4,0 1,-1 2,-1 3,-1 2,-1 3,-2 3,-4 1,3 -1,5 -7,9 -2,-2 -4,-3 -4,-3 0,1 0,2 1,3 -2,0 -3,-1 -4,-2 0,2 -1,3 -2,3 -1,-1 -2,-1 -2,-1 0,1 -1,2 -1,2 1,0 1,0 2,-1 0,1 0,1 -1,2l2 0 0 1 1 0 0 1c1,0 2,0 2,0 1,2 1,3 0,3 -1,-1 -2,-2 -3,-1l-1 0 1 2 0 3c0,-1 -1,-1 -3,-3 -1,0 -1,0 0,2 0,1 -1,1 -3,0l-2 0c1,1 2,2 4,2 0,-1 0,0 -1,1 0,0 0,0 3,1 -1,1 0,1 1,1 1,0 1,1 1,1l1 -1c1,2 2,4 4,6 2,-1 3,-1 3,-1 -5,4 -9,4 -11,2 0,2 0,3 -1,2l-3 -1 -1 2c2,0 2,1 3,2l2 1c-1,3 0,3 3,1 -1,2 -1,3 1,2 -2,2 -4,2 -6,0 -1,2 -2,2 -4,1l3 2 0 3 3 -1c-1,3 1,3 5,1 0,1 1,2 1,3 -1,0 -3,1 -5,3 -1,-1 -3,-1 -5,0 -1,0 -2,1 -2,4l-3 -1c1,2 3,3 4,2l-1 2 2 0 -1 2c2,-1 2,-1 3,-1l1 0 0 2 2 -2c0,2 1,2 3,1l1 -1 0 2 2 -3 1 2 1 -2c-1,-1 0,0 2,0 3,-1 5,-3 5,-4 1,4 1,8 -2,12z"/>
   <path class="fil16 str0" d="M337 535c0,0 0,0 0,0 0,0 0,0 0,0zm8 -5l-2 0 1 -1c0,0 0,1 1,1zm-22 -2c0,0 1,-1 1,-1l1 1 -2 0zm7 14l6 1c-1,-2 -1,-5 1,-8 0,0 0,0 0,0 -1,1 0,3 3,4 2,0 2,-1 2,0l1 1 0 -1 1 2 1 -2 0 1c2,1 3,1 3,-1l1 2 0 -1 1 0c0,-1 0,0 1,1l0 -2 2 0 -2 -2c1,1 3,1 4,-1l-2 0c-1,-1 -1,-2 -2,-2 -2,0 -3,-1 -3,0 -2,-2 -4,-2 -5,-2 1,-1 1,-1 2,-2 2,1 3,1 3,-1l2 0 0 -1 3 -2c-2,1 -3,0 -3,0 -2,1 -4,1 -5,-1 1,1 2,1 1,-1 2,1 2,1 2,-1l1 0c1,-1 2,-2 2,-2l0 -1 -2 0c-1,1 -1,0 -1,-1 -1,2 -4,1 -8,-1 0,0 1,0 2,0 2,-1 3,-3 3,-4l1 1c0,-1 0,-1 1,-1 1,0 1,0 1,-1 1,0 2,0 1,0 0,-1 0,-2 0,-1 1,0 2,-1 2,-2l-1 0c-1,1 -2,1 -2,0 1,-1 1,-1 0,-1 -1,1 -2,2 -2,2l0 -2 1 -1 -1 0c-1,-1 -1,-1 -2,0 -1,0 -1,-1 0,-2 0,0 0,0 1,0l0 -1 1 0 0 0 1 -1c0,0 0,0 0,-1 0,1 1,1 1,1 0,0 0,-1 0,-1 -1,-1 -1,0 -2,0 -1,0 -1,-1 -1,-2 -1,1 -2,1 -3,2 1,-1 1,-2 0,-2 0,-1 -1,0 -3,1 -4,-2 -5,-4 -5,-6 0,2 1,2 2,3 1,0 2,0 3,0 1,2 2,2 3,1l-2 -2 2 1c1,1 1,1 1,0l-1 -2 1 -1c1,2 2,2 3,2 0,-1 0,-1 -1,-2l2 0c2,0 2,-1 2,-2 -2,1 -3,0 -3,0 0,-1 0,-1 -1,-1 -2,1 -3,2 -4,2 1,-1 1,-2 1,-1 -1,-1 -1,0 -3,1 -1,1 -2,1 -5,0l1 -2c0,1 1,2 2,1l0 -1c0,0 1,1 1,1 1,-1 0,-1 -1,-2 2,0 3,0 3,0 1,0 2,0 2,-1 1,0 0,-1 -2,-1 1,-1 1,-1 1,-1 0,-1 1,-1 1,-1 0,0 1,0 1,-1 0,0 -1,-1 -2,-1 1,0 2,-1 2,-2 -1,0 -2,1 -4,2 0,0 -1,-1 -2,-1 2,-1 2,-1 2,-2 0,-1 -1,-1 -2,0 0,1 0,0 0,-1l1 0c0,0 0,0 1,-1 -1,0 -1,0 -1,-1l1 -2c1,-1 0,-2 0,-2 -1,1 -1,2 -2,2 0,-1 0,-1 0,-2 -1,0 -1,1 -1,3 -1,2 -1,2 -1,2l0 -4 2 -3c0,0 0,-1 0,-2l-2 3 0 -6 0 -1 -2 -1 0 6 -2 -3c0,1 0,2 0,2l2 3 0 4c0,0 -1,0 -1,-2 0,-2 0,-3 -1,-3 0,1 -1,1 0,2 -1,0 -2,-1 -2,-2 -1,0 -1,1 0,2l1 2c0,1 0,1 -1,1 0,1 1,1 1,1l1 -1c0,2 0,3 0,2 -1,-1 -2,-1 -2,-1 0,2 0,2 1,3 -1,0 -1,0 -1,1 -2,-2 -4,-2 -4,-2 0,1 0,2 2,2 -1,0 -2,0 -2,1 0,1 0,1 1,1 0,0 0,0 1,0 0,1 0,1 0,2 -2,0 -2,1 -2,1 1,1 1,1 3,1 0,0 1,0 2,0 -1,1 -1,1 0,1 0,1 1,0 1,0l0 1c1,1 2,0 2,-1l0 2c-2,1 -4,1 -4,0 -2,-1 -3,-2 -3,-1 0,-1 0,0 1,1 -1,0 -3,-1 -5,-2 0,0 0,0 0,1 0,0 -1,1 -3,0 0,1 0,2 2,2l2 0c-1,1 -2,1 -1,2 1,0 2,0 2,-2l1 1 0 2c0,1 0,1 1,0l2 -1 -2 2c0,1 1,1 3,-1 0,0 1,0 2,0 2,-1 2,-2 2,-3 1,2 -1,4 -5,6 -2,-1 -3,-2 -3,-2 0,1 0,2 1,3 -1,-1 -2,-1 -3,-2 0,1 0,2 -1,2 -1,0 -2,-1 -2,0 0,0 0,1 0,1 0,0 1,0 1,-1 0,1 0,1 -1,1l2 1 0 0 1 0 -1 1c1,0 2,0 2,0 1,1 1,2 0,2 -1,-1 -2,-1 -2,0l-1 0 1 1 0 2c-1,0 -1,-1 -2,-2 -1,0 -1,0 -1,1 0,1 0,1 -2,0l-1 0c1,1 2,2 3,2 0,-1 0,0 -1,1 0,0 0,0 2,0 0,1 0,1 1,1 0,0 1,0 1,1l0 -1c1,1 2,3 3,4 2,-1 2,-1 2,0 -3,2 -6,3 -8,1 1,1 0,2 0,1l-2 0 -1 1c1,0 2,1 2,1l2 1c-1,2 0,2 1,1 0,2 0,2 2,1 -2,2 -3,2 -5,1 0,0 -1,1 -3,0l2 2 0 1 3 0c-1,2 0,2 3,1 0,0 1,1 1,2 -1,0 -2,0 -4,2 -1,-1 -2,-1 -3,0 -1,0 -2,1 -2,2l-2 0c1,2 2,2 3,1l-1 2 2 0 -1 2c1,-1 2,-2 2,-1l1 0 0 1 1 -2c0,2 1,2 2,1l1 -1 0 2 1 -2 1 1 1 -1c-1,-1 0,0 1,0 3,-1 4,-2 4,-3 1,3 0,6 -1,8z"/>
   <path class="fil16 str0" d="M291 525c0,0 0,0 0,0 0,0 0,0 0,0zm11 -8l-3 0 2 -1c0,1 1,1 1,1zm-30 -3c1,0 1,0 1,-1l2 1 -3 0zm9 21l9 0c-1,-2 -1,-6 1,-10 0,0 0,0 0,0 -1,1 1,3 5,5 2,-1 3,-1 2,-1l1 3 1 -2 2 3 0 -2 1 1c2,1 4,1 3,-2l2 3 0 -2 2 0c0,-1 0,0 2,1l-1 -2 2 0 -1 -2c1,1 3,0 4,-2l-3 0c0,-2 0,-3 -2,-3 -2,-1 -4,-1 -5,0 -2,-2 -4,-3 -5,-3 1,-1 1,-2 1,-3 4,2 6,2 5,-1l3 1 0 -3 3 -2c-2,1 -3,0 -4,-1 -2,2 -4,2 -6,0 2,1 2,0 2,-2 2,2 3,2 2,-1l2 -1c1,-1 2,-2 3,-2l-1 -2 -2 1c-1,1 -2,0 -2,-2 -2,2 -6,2 -11,-2 0,0 1,0 3,1 2,-2 3,-4 4,-6l1 1c0,0 0,-1 1,-1 2,0 2,0 1,-1 3,-1 4,-1 3,-1 0,-1 -1,-2 0,-1 1,0 2,-1 3,-2l-2 0c-2,1 -3,1 -2,0 0,-2 0,-2 -1,-2 -1,2 -3,2 -3,3l0 -3 1 -2 -1 0c-1,-1 -1,0 -3,1 -1,0 -1,-1 0,-2 0,-1 1,-1 2,0l0 -2 1 0 0 -1 2 0c-1,0 -1,-1 -1,-2 1,1 1,1 2,1 0,0 0,-1 -1,-2 0,0 -1,0 -2,1 -1,0 -2,-1 -1,-3 -2,1 -3,2 -5,2 1,-1 2,-2 1,-3 0,0 -1,1 -4,3 -6,-3 -8,-6 -7,-8 0,1 1,2 3,3 1,0 2,0 4,1 1,1 2,2 3,0l-3 -3 3 2c1,1 2,1 2,1l-1 -4 1 0c2,1 3,2 4,2 0,-1 0,-2 -2,-3l4 0c2,0 3,-1 2,-2 -2,0 -4,0 -4,-1 0,-1 0,-1 -1,-2 -2,3 -5,4 -6,4 1,-2 2,-3 1,-2 0,-1 -1,0 -4,2 -1,1 -3,0 -6,0l0 -3c1,2 2,2 3,2l0 -2c1,0 1,1 2,1 1,-1 1,-2 -1,-3 2,1 3,1 4,0 1,1 3,1 3,0 1,-1 0,-2 -3,-3 1,0 1,-1 1,-1 0,-1 1,-1 1,-2 1,1 2,1 2,0 -1,-1 -1,-2 -3,-1 2,-1 3,-2 3,-4 -1,0 -3,1 -6,3 0,-1 -1,-1 -2,-1 2,-1 2,-2 2,-4 0,0 -1,0 -2,1 -1,1 -1,0 0,-2l0 0c1,1 2,1 2,-1 -1,0 -1,0 -1,-1l2 -4c0,-1 0,-1 -1,-2 -1,2 -2,2 -3,2 1,0 1,-1 0,-2 -1,0 -1,1 -1,5 -1,2 -1,2 -2,2l0 -5 3 -4c1,-1 1,-2 0,-3l-3 4 0 -9 0 0 -2 -3 0 9 -3 -4c0,1 0,2 0,3l3 4 0 5c-1,1 -1,0 -1,-2 0,-3 -1,-5 -2,-5 0,1 0,2 0,2 -1,0 -2,0 -3,-2 -1,1 -1,1 0,3l2 3c0,1 -1,1 -1,1 0,2 0,2 1,2l1 -1c0,2 0,3 0,2 -2,-1 -2,-1 -3,-1 0,2 1,3 2,4 -1,0 -1,0 -2,1 -3,-2 -4,-3 -5,-3 0,2 0,3 2,4 -1,0 -2,0 -2,1 0,1 0,1 1,1 0,0 1,1 2,1 -1,0 -1,1 0,1 -3,1 -4,2 -2,3 0,1 1,1 3,0 0,1 1,1 3,0 -1,1 -2,2 -1,3 1,0 2,0 2,-1l0 2c1,0 2,0 3,-2l1 3c-4,1 -6,1 -7,0 -2,-2 -3,-3 -4,-2 0,-1 0,0 2,2 -2,0 -4,-1 -7,-4 0,1 -1,1 -1,2 0,1 -1,1 -3,1 -1,1 0,2 2,3l3 -1c-2,1 -2,2 -1,3 1,0 2,0 3,-2l1 0 -1 4c0,1 1,1 2,0l3 -3 -3 4c1,1 2,1 4,-1 1,0 2,-1 4,-1 2,0 2,-2 2,-3 2,2 -1,5 -6,8 -3,-2 -5,-3 -5,-3 0,1 0,2 1,3 -1,0 -3,-1 -4,-2 0,2 0,3 -2,3 -1,-1 -2,-1 -2,-1 0,1 0,2 0,2 0,0 1,0 1,-1 0,1 0,2 -1,2l3 0 -1 1 2 0 -1 2c2,-1 2,-1 2,0 1,1 1,2 0,2 -1,-1 -2,-1 -2,0l-2 0 2 1 -1 3c0,0 -1,-1 -3,-3 0,0 -1,1 0,2 0,1 -1,1 -3,0l-1 0c0,1 1,2 3,2 0,0 0,0 0,1 -1,0 0,0 2,1 -1,1 0,1 1,1 1,0 1,1 1,1l1 -1c1,2 3,4 4,6 2,-1 3,-1 3,-1 -5,4 -9,4 -11,2 0,2 0,3 -1,2l-3 -1 0 2c1,0 2,1 3,2l1 1c0,3 1,3 3,1 -1,2 0,3 2,2 -2,2 -5,2 -7,0 -1,2 -2,2 -4,1l3 2 0 3 3 -1c0,3 1,3 5,1 0,1 1,2 2,4 -2,-1 -3,0 -6,2 -1,-1 -2,0 -5,0 -1,0 -2,1 -2,4l-3 -1c2,2 3,3 5,2l-2 2 2 0 0 2c1,-1 2,-1 2,-1l2 0 -1 2 2 -2c0,2 1,2 3,1l1 -1 1 2 1 -3 1 2 1 -2c-1,-1 0,0 2,0 4,-1 5,-3 5,-4 2,4 1,8 -2,12z"/>
  </g>
  <path class="fil18 str1" d="M73 582c0,0 0,0 0,0 0,0 0,0 0,0zm25 -14l-6 1 3 -2c1,0 2,1 3,1zm-69 -5c1,0 2,-1 3,-1l4 2 -7 -1zm21 37l21 1c-4,-5 -3,-11 2,-19 0,0 0,0 0,0 -2,3 2,6 12,10 4,-2 6,-2 4,-2l3 5 2 -4 3 5 2 -4 1 2c5,3 8,2 8,-2l3 4 0 -3 4 0c0,-1 2,0 5,2l-1 -3 4 -1 -3 -3c3,1 7,0 10,-4l-6 1c-1,-5 -2,-6 -5,-6 -6,-1 -9,-1 -11,0 -6,-4 -10,-5 -13,-5 2,-2 3,-4 3,-6 9,4 13,3 11,-2l7 2 1 -5 6 -4c-4,2 -7,1 -9,-1 -5,3 -10,3 -15,-1 5,2 6,1 5,-4 5,4 7,4 5,0l4 -3c2,-2 4,-3 7,-4l-2 -3 -5 2c-3,1 -4,0 -3,-4 -5,5 -14,4 -26,-3 1,0 3,0 7,1 4,-3 7,-6 10,-10l2 2c0,-1 0,-2 2,-2 3,0 4,-1 3,-2 5,-1 7,-1 5,-1 0,-3 -1,-4 0,-3 3,1 5,-1 7,-4l-4 1c-5,2 -6,1 -5,-1 0,-2 0,-3 -2,-2 -3,2 -6,4 -7,4l0 -4 3 -3 -3 0c-1,-2 -3,-2 -6,0 -3,0 -3,-1 -1,-4 1,0 2,0 5,0l-1 -2 4 0 -1 -2 5 -1c-1,0 -2,-1 -2,-2 1,1 3,1 4,0 -1,0 -1,-1 -1,-2 -1,-1 -3,0 -6,1 -2,0 -4,-2 -3,-5 -3,2 -6,3 -10,4 3,-2 3,-4 2,-5 0,-1 -4,0 -10,4 -13,-6 -18,-11 -15,-15 -1,3 1,5 6,7 3,0 6,0 9,1 4,3 6,3 7,1l-6 -6 7 4c3,2 4,2 4,1l-2 -7 3 -1c2,4 5,5 8,4 1,-1 0,-3 -4,-4l8 0c5,-1 7,-3 5,-5 -5,1 -8,1 -9,-1 1,-1 0,-2 -2,-3 -6,5 -11,7 -15,6 4,-3 5,-4 4,-3 -1,-1 -4,0 -9,3 -2,1 -8,1 -15,0l1 -5c2,3 4,4 7,3l-1 -3c2,1 4,1 5,1 2,0 2,-2 -2,-5 4,2 7,2 8,0 4,2 7,2 7,0 3,-2 1,-3 -6,-4 3,-1 3,-2 2,-3 1,-1 2,-1 3,-2 2,0 3,0 3,-1 0,-2 -2,-3 -5,-3 4,-1 6,-3 5,-6 -2,0 -6,2 -12,6 -1,-2 -2,-3 -5,-3 4,-1 5,-4 5,-6 -1,-1 -3,0 -6,1 -1,2 -1,0 0,-4l2 1c1,1 3,1 3,-2 -2,0 -3,-1 -3,-3l5 -5c1,-2 1,-4 -1,-4 -2,2 -4,4 -7,4 1,-2 1,-3 0,-4 -2,-1 -3,2 -3,8 -1,4 -2,5 -3,3l0 -8 6 -8c1,-1 1,-3 0,-4l-7 6 0 -15 1 -1 -6 -4 0 15 -7 -6c-1,1 -1,3 1,4l6 8 0 8c-1,2 -3,1 -3,-3 0,-6 -2,-9 -4,-8 -1,1 -1,2 0,3 -2,0 -5,-1 -7,-3 -1,0 -2,2 0,4l4 5c0,2 -1,3 -3,3 1,2 2,3 4,2l2 -1c0,4 0,5 -1,4 -3,-1 -4,-2 -5,-1 -1,2 0,4 4,6 -2,0 -4,1 -4,3 -7,-4 -11,-6 -13,-6 0,3 1,5 5,6 -3,0 -4,1 -5,3 0,1 1,1 3,1 1,1 2,1 4,2 -2,1 -1,2 1,3 -7,1 -9,2 -6,4 1,2 3,2 8,0 1,2 3,2 7,0 -3,3 -4,4 -2,5 2,0 3,0 5,-2l-1 4c3,1 5,0 7,-4l2 6c-8,1 -13,1 -16,0 -5,-3 -7,-4 -8,-3 -1,-1 0,0 3,3 -4,1 -9,-2 -15,-6 -2,1 -2,2 -2,3 0,1 -3,2 -9,1 -1,2 1,4 6,5l7 0c-4,1 -5,2 -3,4 2,1 5,0 8,-4l2 1 -2 6c0,2 2,2 4,0l7 -4 -6 6c1,2 4,2 8,-1 3,-1 6,-1 8,-1 5,-2 7,-4 7,-7 2,4 -3,9 -16,15 -6,-4 -9,-5 -9,-5 -2,2 -1,4 2,6 -4,-1 -8,-2 -11,-4 1,3 0,4 -3,5 -3,-1 -5,-2 -6,-1 0,1 0,2 0,2 1,1 2,1 4,0 0,1 -1,2 -2,2l5 1 -1 2 3 0 -1 2c3,0 5,0 5,0 2,3 2,4 0,4 -3,-2 -5,-2 -6,-1l-4 0 4 4 -1 4c-1,0 -3,-2 -7,-4 -2,-1 -2,0 -1,2 1,2 -1,2 -6,1l-3 -1c1,3 3,4 7,4 0,-1 0,0 -1,3 -2,0 0,0 6,1 -2,1 -1,2 3,2 1,0 2,1 2,2l2 -2c2,3 6,7 10,10 3,-1 5,-1 6,-1 -12,7 -20,7 -26,3 1,4 0,5 -2,4l-6 -2 -1 3c2,1 4,2 6,4l4 2c-1,5 1,5 6,1 -2,5 -1,6 4,4 -5,4 -10,4 -15,1 -1,2 -5,2 -9,1l6 4 1 4 7 -1c-1,5 3,6 11,2 1,2 2,4 4,6 -3,-1 -8,1 -13,5 -2,-2 -6,-1 -11,0 -3,-1 -5,1 -5,6l-7 -1c4,4 7,5 11,3l-4 4 4 1 0 3c3,-2 4,-3 4,-2l5 0 -1 3 3 -4c0,4 3,5 8,2l2 -2 1 4 4 -5 2 4 2 -5c-1,0 0,0 5,2 8,-3 12,-6 12,-9 3,9 1,16 -5,22z"/>
  <g>
   <path class="fil18" d="M0 582c0,-35 0,-6 17,-14 9,-5 7,19 22,4 9,-10 -6,16 20,7 10,-3 11,15 21,-17 0,0 11,9 15,-2 2,-5 5,10 25,2 22,-8 4,20 19,13 7,-3 8,7 15,-9 14,-3 19,5 41,-2 32,-11 32,11 52,-1 17,-10 0,18 30,-4 13,-10 7,30 43,3 0,-10 4,14 26,-2 9,-6 15,16 14,22l-360 0zm0 0l360 0 0 56 -360 0 0 -56z"/>
  </g>
  <path class="fil18 str1" d="M138 603c0,0 0,0 0,0 0,0 0,0 0,0zm14 -8l-4 0 2 -1c1,0 1,0 2,1zm-38 -4c1,0 1,0 2,0l2 1 -4 -1zm11 24l12 0c-2,-3 -2,-7 1,-12 0,0 0,0 0,0 -1,2 1,4 7,7 2,-1 3,-2 2,-1l1 2 2 -2 1 3 1 -2 1 1c3,2 4,2 4,-1l2 2 0 -2 2 0c0,0 1,0 3,2l-1 -2 3 -1 -2 -2c2,1 4,0 6,-2l-4 0c0,-3 -1,-4 -3,-3 -3,-1 -5,-1 -6,-1 -3,-2 -5,-3 -7,-3 1,-1 2,-2 2,-3 5,2 7,2 6,-2l4 1 0 -2 4 -3c-3,1 -4,0 -5,-1 -3,2 -6,2 -9,-1 3,2 4,1 3,-2 3,3 4,2 3,0l2 -2c1,-1 2,-2 4,-2l-1 -2 -3 1c-1,1 -2,0 -2,-3 -3,3 -7,3 -14,-1 1,-1 2,-1 4,0 2,-2 4,-4 5,-7l1 2c0,-1 1,-1 1,-1 2,0 3,-1 2,-2 3,0 4,0 3,0 0,-2 0,-2 0,-2 2,0 3,-1 4,-2l-2 0c-3,1 -4,1 -3,-1 0,-1 0,-1 -1,-1 -2,2 -3,3 -4,3l0 -3 2 -2 -2 0c-1,-1 -2,-1 -3,0 -2,0 -2,-1 -1,-2 1,0 1,0 3,0l-1 -2 2 0 0 -1 3 0c-1,-1 -1,-1 -2,-2 1,1 2,1 3,0 -1,0 -1,0 -1,-1 0,0 -1,0 -3,1 -1,-1 -2,-2 -2,-3 -1,1 -3,1 -5,2 1,-1 2,-2 1,-4 0,0 -2,1 -5,3 -8,-3 -10,-7 -9,-9 0,2 1,3 4,4 1,0 3,0 4,1 2,2 4,2 4,0l-3 -3 4 2c1,1 2,1 2,0l-1 -4 2 0c1,2 2,3 4,3 1,-2 0,-3 -2,-3l4 0c3,-1 4,-2 3,-3 -3,0 -5,0 -5,-1 0,-1 0,-2 -1,-2 -3,3 -6,4 -8,4 2,-2 2,-3 2,-2 -1,-1 -2,0 -5,2 -1,1 -4,1 -8,0l0 -4c1,3 3,3 4,2l0 -2c1,1 2,2 2,1 1,0 1,-1 -1,-3 3,1 4,1 4,0 3,1 4,1 5,0 1,-1 0,-2 -4,-3 2,0 2,-1 1,-1 1,-1 2,-1 2,-2 1,0 1,0 2,0 -1,-2 -2,-2 -3,-2 2,-1 3,-2 3,-4 -1,0 -4,1 -7,4 -1,-1 -1,-2 -3,-2 2,-1 3,-2 3,-4 -1,0 -2,0 -3,1 -1,1 -1,0 0,-3l1 1c1,1 1,0 1,-1 -1,0 -1,-1 -1,-2l2 -4c1,-1 1,-2 0,-2 -1,1 -2,2 -4,2 1,0 1,-1 0,-2 -1,-1 -2,1 -2,5 0,2 -1,3 -1,2l0 -5 3 -5c1,-1 1,-2 0,-3l-4 4 0 -9 1 -1 -3 -3 0 10 -4 -4c-1,1 -1,2 0,3l3 5 0 5c0,1 -1,0 -1,-2 0,-4 -1,-6 -2,-5 -1,1 -1,1 0,2 -2,0 -3,-1 -4,-2 -1,0 -1,1 0,2l2 4c0,1 0,1 -1,2 0,1 1,1 2,1l1 -1c0,3 0,3 -1,3 -1,-1 -2,-2 -3,-1 0,1 1,3 3,4 -2,0 -2,0 -3,2 -3,-3 -6,-4 -7,-4 0,2 1,3 3,4 -1,0 -2,0 -3,1 1,1 1,1 2,1 0,1 1,1 2,1 -1,1 -1,2 1,2 -4,1 -5,2 -4,3 1,1 2,1 5,0 0,1 1,1 4,0 -2,2 -2,3 -1,3 0,0 1,0 2,-1l0 2c1,1 3,0 4,-2l0 3c-4,1 -7,1 -8,1 -3,-3 -4,-3 -5,-2 0,-1 0,0 2,2 -2,0 -5,-1 -8,-4 -1,0 -1,1 -1,2 0,1 -2,1 -5,0 -1,2 0,3 3,3l4 0c-2,1 -3,2 -2,3 2,1 3,0 5,-2l1 0 -1 4c0,1 1,1 2,0l4 -2 -3 3c0,2 2,1 4,-1 1,0 3,0 5,0 2,-1 3,-3 3,-4 1,2 -1,5 -9,9 -3,-2 -5,-3 -5,-3 -1,1 0,2 1,4 -2,-1 -4,-2 -5,-3 0,2 -1,3 -2,3 -2,-1 -3,-1 -3,0 0,1 0,1 -1,1 1,1 2,0 3,0 0,1 -1,1 -2,1l3 1 0 1 2 0 -1 1c2,0 2,0 3,0 1,2 1,3 0,3 -2,-1 -3,-1 -4,0l-2 0 2 2 0 2c-1,0 -2,-1 -4,-2 -1,-1 -1,0 -1,1 1,2 0,2 -3,1l-2 -1c1,2 2,3 4,3 0,-1 0,0 0,1 -1,0 0,0 3,1 -1,1 0,1 2,2 0,0 1,0 1,1l1 -2c1,3 3,5 5,7 2,-1 3,-1 4,-1 -7,4 -11,5 -14,2 0,2 0,3 -2,3l-3 -1 -1 1c2,1 3,2 4,3l2 1c-1,3 0,3 3,1 -1,3 0,4 3,2 -3,3 -6,3 -8,1 -2,1 -3,1 -6,1l4 2 0 3 4 -1c-1,3 1,4 6,1 0,2 1,3 2,4 -2,0 -4,1 -7,3 -1,-1 -3,-1 -6,0 -2,0 -3,1 -3,4l-3 -1c1,3 3,4 5,3l-2 2 3 0 -1 2c2,-1 3,-1 3,-1l2 0 0 2 2 -2c0,2 1,3 4,1l1 -1 1 2 2 -3 1 2 1 -3c-1,0 0,0 2,1 5,-1 7,-3 7,-5 2,5 1,10 -3,14z"/>
  <path class="fil18 str1" d="M189 571c0,0 0,0 0,0 0,0 0,0 0,0zm13 -8l-3 0 2 -1c1,0 1,1 1,1zm-37 -3c0,-1 1,-1 1,-1l2 1 -3 0zm11 23l12 1c-2,-3 -2,-7 1,-13 0,0 0,0 0,0 -1,2 1,5 6,7 3,-1 4,-1 3,-1l1 3 1 -3 2 4 1 -3 1 2c3,1 4,1 4,-2l2 3 -1 -2 3 0c0,-1 1,0 2,1l0 -2 2 -1 -2 -2c2,1 4,0 6,-2l-3 0c-1,-2 -2,-4 -3,-3 -3,-1 -5,-1 -6,0 -3,-3 -6,-4 -7,-3 1,-2 1,-3 1,-4 5,2 7,2 7,-2l3 1 1 -2 3 -3c-2,1 -4,1 -5,-1 -2,3 -5,2 -8,0 3,1 4,0 3,-3 2,3 3,3 3,0l2 -2c1,-1 2,-2 3,-2l0 -2 -4 1c-1,1 -1,0 -1,-3 -3,3 -8,3 -14,-1 0,0 1,0 3,0 3,-2 5,-4 6,-6l1 1c0,0 0,-1 1,-1 2,0 3,-1 2,-2 3,0 4,0 3,0 -1,-2 -1,-2 -1,-2 2,1 4,0 4,-2l-2 0c-2,1 -3,1 -3,0 1,-2 1,-2 0,-2 -2,2 -4,3 -4,3l0 -3 1 -2 -1 0c-1,-1 -2,-1 -4,1 -1,-1 -1,-1 0,-3 0,0 1,0 3,0l-1 -2 2 1 0 -2 2 0c0,0 -1,-1 -1,-2 1,1 2,1 2,1 0,0 0,-1 0,-2 0,0 -1,0 -3,1 -2,-1 -2,-1 -2,-3 -2,1 -3,2 -6,2 2,-1 2,-2 1,-3 0,-1 -1,0 -5,2 -7,-3 -10,-6 -8,-9 0,2 1,3 3,4 2,0 3,1 5,1 2,2 4,2 4,1l-3 -4 4 3c1,1 2,1 2,0l-1 -4 1 -1c2,2 3,3 5,3 0,-1 0,-2 -2,-3l4 0c2,-1 3,-2 3,-3 -3,0 -5,0 -5,-1 0,-1 0,-1 -1,-2 -4,3 -6,5 -9,4 2,-2 3,-3 2,-2 0,-1 -2,0 -4,2 -2,1 -5,1 -9,0l1 -3c1,2 2,3 4,2l-1 -2c2,1 2,1 3,1 1,-1 1,-2 -1,-3 2,1 4,1 4,0 3,1 4,0 4,-1 2,-1 1,-2 -3,-2 1,-1 2,-2 1,-2 1,0 1,-1 2,-2 1,1 1,1 1,0 0,-1 -1,-2 -3,-2 3,0 4,-2 3,-4 -1,0 -3,1 -7,4 0,-1 -1,-2 -2,-2 2,-1 3,-2 2,-4 0,0 -1,0 -2,1 -1,1 -1,0 -1,-2l1 0c1,1 2,1 2,-1 -1,0 -2,-1 -1,-2l2 -3c1,-2 1,-3 0,-3 -2,2 -3,2 -4,3 1,-1 0,-2 0,-3 -1,0 -2,1 -2,5 0,3 -1,3 -2,2l0 -5 4 -5c0,-1 0,-2 0,-3l-4 4 0 -9 0 -1 -3 -2 0 9 -3 -4c-1,1 -1,2 0,3l3 5 0 5c-1,1 -1,0 -2,-2 0,-4 0,-6 -1,-5 -1,1 -1,2 -1,2 -1,0 -2,-1 -3,-2 -1,0 -1,1 -1,2l3 4c0,1 -1,2 -2,2 1,1 1,2 2,1l1 -1c1,3 1,4 0,3 -2,-1 -3,-1 -3,-1 0,2 0,3 2,4 -1,0 -2,1 -2,2 -4,-3 -6,-4 -7,-4 0,2 1,3 3,4 -2,0 -3,0 -3,2 0,0 1,1 2,0 0,1 1,1 2,2 -1,0 -1,1 1,1 -4,1 -5,2 -4,3 0,1 2,1 4,0 1,1 2,1 4,0 -1,2 -2,3 -1,3 1,1 2,0 3,-1l-1 3c2,0 3,0 4,-3l1 4c-4,1 -7,1 -8,0 -3,-2 -5,-3 -5,-2 -1,-1 0,0 2,2 -2,0 -5,-1 -8,-4 -1,0 -2,1 -1,2 -1,1 -2,1 -5,1 -1,1 0,2 3,3l4 0c-2,0 -3,1 -2,3 1,0 3,-1 4,-3l2 0 -1 4c0,1 0,1 2,0l4 -2 -4 3c1,2 2,2 4,0 2,-1 4,-1 5,-1 3,-1 4,-2 4,-4 1,2 -2,6 -9,9 -3,-2 -5,-3 -5,-3 -1,2 -1,3 1,4 -2,-1 -4,-1 -6,-2 1,1 0,2 -1,3 -2,-1 -3,-1 -3,-1 -1,1 -1,1 -1,1 1,1 1,1 2,0 0,1 0,1 -1,2l3 0 -1 1 2 0 0 2c1,0 2,0 2,0 2,1 1,2 0,2 -1,-1 -3,-1 -3,0l-2 0 2 2 0 3c-1,0 -2,-1 -4,-3 -1,0 -1,0 -1,1 1,2 0,2 -3,1l-2 0c1,1 2,2 4,2 0,0 0,0 0,2 -1,0 0,0 3,0 -1,1 -1,2 1,2 1,0 1,0 1,1l1 -1c2,2 4,4 6,6 2,-1 3,-1 3,0 -6,4 -11,4 -14,1 1,3 0,4 -1,3l-3 -1 -1 2c1,0 3,1 4,2l2 2c-1,2 0,3 3,0 -1,3 0,4 2,2 -2,3 -5,3 -8,1 -1,1 -3,2 -5,1l4 3 0 2 4 -1c-1,4 1,4 6,2 0,1 1,2 2,3 -2,0 -4,1 -7,3 -1,0 -3,0 -6,1 -2,-1 -3,0 -3,3l-4 0c2,2 4,3 6,2l-2 2 2 1 0 2c2,-2 3,-2 3,-2l2 0 0 2 2 -2c-1,3 1,3 4,1l1 -1 0 2 2 -3 1 2 2 -2c-1,-1 0,0 2,1 5,-2 7,-4 7,-6 1,6 1,10 -3,14z"/>
  <path class="fil18 str1" d="M277 563c0,0 0,0 0,0 0,0 0,0 0,0zm17 -11l-4 1 2 -2c1,1 2,1 2,1zm-45 -4c0,0 1,0 2,-1l2 2 -4 -1zm13 28l14 2c-2,-4 -2,-9 1,-15 0,0 0,0 0,0 -1,2 2,5 8,7 3,-1 4,-1 3,-1l2 4 1 -3 3 4 0 -3 1 1c4,3 6,2 6,-1l2 3 0 -3 2 0c0,0 1,0 3,2l0 -3 3 0 -3 -3c3,1 5,1 7,-3l-4 1c0,-3 -1,-5 -3,-4 -4,-1 -6,-1 -8,-1 -3,-2 -6,-4 -8,-3 1,-2 2,-3 2,-5 6,3 8,3 8,-1l4 1 1 -3 4 -3c-3,0 -5,0 -6,-1 -4,2 -7,2 -10,-1 3,2 4,1 3,-3 3,3 4,3 4,-1l2 -1c1,-2 3,-3 4,-3l-1 -3 -3 2c-2,0 -2,-1 -2,-4 -4,4 -9,3 -17,-1 0,-1 2,-1 4,0 3,-2 5,-5 7,-8l1 2c0,-1 1,-1 2,-1 2,-1 2,-1 1,-2 4,-1 5,-1 4,-1 0,-2 0,-3 0,-2 2,0 3,-1 4,-3l-2 0c-3,2 -4,2 -4,0 1,-2 1,-2 0,-2 -3,2 -4,3 -5,3l0 -3 2 -2 -2 0c-1,-2 -2,-2 -4,0 -2,0 -2,-1 -1,-3 1,0 2,0 3,0l0 -2 2 0 0 -1 3 -1c-1,0 -1,-1 -1,-2 1,1 1,1 2,1 0,0 0,-1 0,-2 -1,-1 -2,0 -4,1 -2,-1 -3,-2 -2,-4 -2,1 -4,2 -7,3 2,-2 2,-3 1,-4 0,-1 -2,0 -6,3 -9,-4 -12,-8 -10,-11 0,2 1,4 4,5 2,0 4,0 6,1 2,2 4,2 5,1l-4 -5 4 3c2,1 3,2 3,0l-1 -5 1 0c2,3 4,4 6,3 1,-1 0,-3 -3,-4l5 1c3,-1 5,-3 4,-4 -4,1 -6,0 -6,-1 0,-1 0,-2 -1,-2 -4,3 -8,5 -10,5 2,-3 3,-4 2,-3 -1,-1 -2,0 -6,2 -1,1 -5,1 -10,0l1 -4c1,3 3,4 5,3l-1 -3c1,1 2,2 3,1 2,0 1,-1 -1,-3 3,1 4,1 5,0 3,1 5,1 5,-1 2,-1 0,-2 -4,-3 2,0 2,-1 1,-2 1,0 2,-1 2,-2 1,1 2,0 2,0 0,-2 -1,-2 -3,-2 2,-1 4,-3 3,-5 -1,0 -4,1 -8,4 0,-1 -1,-2 -3,-2 2,-1 3,-3 3,-4 -1,-1 -2,-1 -4,1 0,1 0,0 0,-3l1 0c2,1 2,1 3,-1 -2,0 -2,-1 -2,-3l3 -4c0,-1 0,-2 -1,-3 -1,2 -3,3 -4,3 0,-1 0,-2 0,-3 -2,0 -2,2 -3,7 0,2 -1,3 -2,2l0 -6 4 -6c1,-1 1,-2 1,-4l-5 5 0 -11 0 -1 -3 -3 0 11 -5 -5c0,2 0,3 1,4l4 6 0 6c-1,1 -2,0 -3,-2 0,-5 0,-7 -2,-7 0,1 -1,2 0,3 -1,0 -3,-1 -4,-3 -1,1 -2,2 -1,3l3 4c0,2 0,3 -2,3 1,2 1,2 3,1l1 0c0,3 0,4 -1,3 -1,-2 -3,-2 -3,-1 0,2 0,3 3,5 -2,0 -3,0 -3,1 -4,-3 -7,-4 -8,-4 -1,2 0,4 3,5 -2,0 -3,0 -3,2 0,1 0,1 2,0 0,1 1,2 2,2 -1,1 -1,2 1,2 -5,1 -6,2 -4,3 0,2 2,2 5,1 0,1 2,1 5,0 -2,2 -3,3 -1,3 1,1 1,0 3,-1l-1 3c2,1 4,0 5,-3l1 4c-5,1 -9,2 -11,0 -3,-2 -4,-3 -5,-2 -1,-1 0,0 2,3 -2,0 -6,-2 -10,-5 -1,0 -1,1 -1,2 0,1 -2,2 -6,1 -1,1 0,3 4,4l5 0c-3,1 -4,2 -3,3 2,1 4,0 6,-3l1 0 -1 5c0,2 1,2 3,0l4 -3 -4 5c1,1 3,1 5,-1 2,-1 4,-1 6,-1 3,-1 4,-3 4,-5 2,3 -1,7 -10,11 -4,-3 -6,-4 -6,-3 -1,1 -1,3 1,4 -3,-1 -5,-2 -7,-3 1,2 0,3 -2,4 -2,-1 -3,-1 -4,-1 0,1 0,2 0,2 1,0 1,0 2,-1 0,1 0,2 -1,2l3 1 0 1 2 0 0 2c1,0 2,0 3,0 1,2 1,3 -1,3 -2,-1 -3,-2 -4,0l-2 0 2 2 0 3c-1,0 -2,-1 -5,-3 -1,0 -1,0 0,2 0,2 -1,2 -4,0l-3 0c1,2 3,3 5,3 0,-1 0,0 0,2 -1,0 0,0 4,1 -1,1 -1,1 1,2 1,0 2,0 2,1l1 -2c2,3 4,6 7,8 2,-1 3,-1 4,0 -8,4 -14,5 -17,1 0,3 0,5 -2,4l-3 -2 -2 3c2,0 4,1 5,3l2 1c0,4 1,4 4,1 -1,4 0,5 3,3 -3,3 -6,3 -10,1 -1,1 -3,2 -6,1l4 3 1 3 4 -1c0,4 2,5 8,1 0,2 1,4 2,5 -2,-1 -5,1 -8,4 -2,-1 -4,-1 -8,0 -2,-1 -3,1 -3,4l-5 -1c3,4 5,4 7,3l-2 3 3 1 -1 2c3,-2 4,-2 4,-2l2 0 0 3 2 -3c0,3 2,4 6,2l0 -2 1 3 3 -4 1 3 2 -4c-1,0 0,0 3,2 5,-2 8,-4 8,-7 2,7 1,12 -4,16z"/>
  <path class="fil18 str1" d="M332 606c0,0 0,0 0,0 0,0 0,0 0,0zm13 -10l-4 1 2 -1c1,0 1,0 2,0zm-36 -3c1,-1 1,-1 2,-1l1 1 -3 0zm11 26l11 1c-2,-4 -2,-8 1,-14 0,0 0,0 0,0 -1,2 1,5 6,7 2,-1 3,-1 2,-1l1 3 2 -2 1 3 1 -2 1 1c3,2 4,1 4,-2l2 3 -1 -2 3 0c0,-1 0,0 2,2l0 -3 2 -1 -2 -2c2,1 4,0 6,-2l-4 0c0,-3 -1,-4 -3,-4 -2,-1 -4,-1 -5,0 -3,-3 -5,-4 -7,-3 1,-2 2,-3 2,-5 4,3 6,3 6,-1l3 1 1 -3 3 -3c-2,1 -4,1 -5,-1 -3,3 -5,2 -8,-1 3,2 4,1 3,-2 2,3 3,2 3,-1l2 -1c1,-2 2,-3 3,-3l-1 -2 -3 1c-1,1 -1,0 -1,-3 -3,3 -7,3 -13,-2 0,0 1,0 3,0 2,-2 4,-4 5,-7l1 2c0,-1 0,-1 1,-1 2,0 2,-1 2,-2 3,-1 4,-1 3,-1 -1,-2 -1,-2 -1,-2 2,1 3,0 4,-2l-2 0c-2,1 -3,1 -3,0 1,-2 0,-3 0,-2 -2,2 -4,3 -4,3l0 -3 1 -3 -1 0c-1,-1 -2,0 -3,1 -2,0 -2,-1 -1,-3 1,0 1,0 3,0l-1 -2 2 0 0 -1 2 0c0,-1 -1,-1 -1,-2 1,1 2,1 2,0 0,0 0,0 0,-1 0,-1 -1,-1 -3,0 -1,0 -2,-1 -2,-3 -1,1 -3,2 -5,3 1,-2 2,-3 1,-4 0,-1 -2,0 -5,3 -7,-4 -9,-8 -8,-11 0,2 1,4 3,5 2,0 3,0 5,1 2,2 3,2 4,1l-3 -4 3 2c1,2 2,2 2,1l-1 -5 2 -1c1,3 2,4 4,3 0,-1 0,-2 -2,-3l4 0c2,-1 3,-2 2,-3 -2,0 -4,0 -4,-1 0,-1 0,-2 -1,-2 -3,3 -6,5 -8,4 2,-2 2,-3 2,-2 -1,-1 -2,0 -4,2 -2,1 -5,1 -8,0l0 -4c1,3 2,4 4,3l-1 -3c1,1 2,2 3,1 1,0 1,-1 -1,-3 2,1 3,1 4,0 2,1 3,1 4,-1 1,-1 0,-2 -3,-2 1,-1 1,-2 0,-2 1,-1 2,-1 2,-2 1,0 2,0 2,-1 0,-1 -1,-2 -3,-1 2,-1 3,-3 3,-5 -1,0 -3,1 -7,4 0,-1 -1,-1 -2,-2 2,-1 3,-2 2,-4 0,-1 -1,0 -3,1 0,1 0,0 0,-3l1 1c1,0 2,0 2,-2 -1,0 -2,-1 -2,-2l3 -4c0,-1 0,-2 -1,-3 -1,2 -2,3 -3,3 0,-1 0,-1 0,-2 -1,-1 -2,1 -2,5 0,3 -1,4 -2,2l0 -5 4 -6c0,-1 0,-2 0,-3l-4 5 0 -11 0 -1 -2 -3 0 11 -4 -5c0,2 0,3 0,3l3 6 0 6c0,1 -1,0 -1,-2 0,-5 -1,-7 -2,-6 0,1 -1,2 0,2 -1,0 -2,0 -4,-2 0,0 0,1 0,3l3 4c0,1 -1,2 -2,2 0,1 1,2 2,1l1 -1c0,3 0,4 -1,3 -1,-1 -2,-1 -2,-1 -1,2 0,4 2,5 -1,0 -2,0 -2,2 -4,-3 -6,-5 -7,-5 0,3 1,4 3,5 -2,0 -3,0 -3,2 0,0 1,1 2,0 0,1 1,2 2,2 -1,1 -1,1 0,2 -3,1 -4,2 -3,3 0,1 2,1 4,0 1,1 2,1 4,0 -2,2 -2,3 -1,4 1,0 1,0 2,-1l0 2c1,1 3,0 4,-2l0 3c-4,1 -6,1 -8,0 -2,-2 -4,-3 -4,-2 -1,-1 0,0 2,3 -2,0 -5,-2 -8,-5 -1,1 -1,1 -1,2 0,1 -2,2 -5,1 0,1 1,3 3,4l4 -1c-2,1 -3,2 -2,4 2,0 3,-1 4,-3l2 0 -1 5c0,1 0,1 2,0l3 -3 -3 4c1,1 2,1 4,-1 2,0 3,0 5,-1 2,-1 3,-2 3,-4 1,3 -1,6 -8,10 -3,-3 -5,-4 -5,-3 -1,1 -1,3 1,4 -2,-1 -4,-1 -5,-3 0,2 -1,3 -2,4 -2,-1 -3,-2 -3,-1 0,1 0,1 0,2 0,0 1,0 2,-1 0,1 -1,2 -1,2l2 1 0 1 2 0 -1 1c1,0 2,0 3,0 1,2 1,3 -1,3 -1,-1 -2,-1 -3,0l-2 0 2 2 0 3c-1,0 -2,-1 -4,-3 -1,0 -1,0 0,2 0,1 -1,2 -3,0l-2 0c1,2 2,3 4,3 0,-1 0,0 -1,2 -1,-1 0,0 3,0 -1,1 0,2 2,2 0,0 1,1 1,1l1 -1c1,2 3,5 5,7 2,-1 3,-1 3,0 -6,4 -10,5 -13,1 0,3 0,4 -1,3l-3 -1 -1 2c1,1 2,1 3,3l2 2c0,3 1,3 3,0 -1,3 0,4 3,3 -3,3 -6,3 -8,0 -1,2 -3,2 -5,1l3 3 1 3 3 -1c0,4 2,5 6,2 0,1 1,3 2,4 -2,-1 -4,1 -7,3 -1,-1 -3,0 -6,1 -1,-1 -2,0 -2,4l-4 -1c2,3 4,4 6,2l-2 3 2 1 0 2c1,-2 2,-2 2,-2l3 0 -1 3 2 -3c0,3 1,3 4,1l1 -1 1 3 1 -4 1 3 2 -4c-1,0 0,0 2,2 4,-2 6,-4 6,-7 2,7 1,12 -2,16z"/>
 </g>
</svg>
